<?xml version="1.0" encoding="UTF-8"?>
<svg version="1.1" xmlns="http://www.w3.org/2000/svg" width="176" height="180">
<path d="M0 0 C58.08 0 116.16 0 176 0 C176 59.4 176 118.8 176 180 C117.92 180 59.84 180 0 180 C0 120.6 0 61.2 0 0 Z " fill="#E9F1F9" transform="translate(0,0)"/>
<path d="M0 0 C0.71055038 -0.00175232 1.42110077 -0.00350464 2.15318298 -0.00531006 C4.51295378 -0.00972824 6.87265025 -0.00679072 9.23242188 -0.00341797 C10.86527521 -0.00409102 12.49812845 -0.00506105 14.13098145 -0.00631714 C17.55754549 -0.00779407 20.98408351 -0.00563973 24.41064453 -0.00097656 C28.81271689 0.00472073 33.21472828 0.00144169 37.6167984 -0.00454903 C40.98985253 -0.00815478 44.3628921 -0.00701599 47.73594666 -0.00442123 C49.35953275 -0.003752 50.98312014 -0.00458025 52.60670471 -0.00690079 C54.87195358 -0.00942755 57.13710238 -0.00558641 59.40234375 0 C61.33974426 0.00119339 61.33974426 0.00119339 63.31628418 0.00241089 C66.20117188 0.12939453 66.20117188 0.12939453 67.20117188 1.12939453 C67.29436637 2.66422423 67.31862988 4.20331536 67.31469727 5.7409668 C67.31458397 7.21237877 67.31458397 7.21237877 67.31446838 8.71351624 C67.3093071 9.78017014 67.30414581 10.84682404 67.29882812 11.94580078 C67.29741318 13.03199203 67.29599823 14.11818329 67.29454041 15.23728943 C67.28892236 18.72218528 67.2763668 22.20701795 67.26367188 25.69189453 C67.2586592 28.0480134 67.25409589 30.40413327 67.25 32.76025391 C67.23894707 38.54998917 67.22219138 44.33968734 67.20117188 50.12939453 C69.18117188 50.45939453 71.16117187 50.78939453 73.20117188 51.12939453 C73.76367188 53.06689453 73.76367188 53.06689453 74.20117188 55.12939453 C72.40128788 56.92927852 69.95117311 56.24932457 67.55561829 56.2538147 C66.74569931 56.25021942 65.93578033 56.24662415 65.10131836 56.24291992 C64.25261169 56.24306595 63.40390503 56.24321198 62.52947998 56.24336243 C59.71038297 56.24266301 56.89135117 56.23486931 54.07226562 56.22705078 C52.12313371 56.2251867 50.17400133 56.22376275 48.22486877 56.22276306 C43.08410356 56.21893708 37.9433664 56.20910612 32.8026123 56.19805908 C27.5611204 56.18784668 22.31962398 56.18326581 17.078125 56.17822266 C6.78579493 56.16748392 -3.50651427 56.15040655 -13.79882812 56.12939453 C-14.12882813 54.47939453 -14.45882813 52.82939453 -14.79882812 51.12939453 C-12.81882812 50.46939453 -10.83882812 49.80939453 -8.79882812 49.12939453 C-8.78336693 48.23070396 -8.78336693 48.23070396 -8.76759338 47.31385803 C-8.65975848 41.10129365 -8.54514268 34.88888112 -8.42651367 28.67651367 C-8.38309073 26.3552568 -8.34142128 24.03396645 -8.30151367 21.71264648 C-8.24398873 18.38401175 -8.18024388 15.05554668 -8.11523438 11.72705078 C-8.09852188 10.68227066 -8.08180939 9.63749054 -8.06459045 8.56105042 C-8.04464523 7.60012985 -8.02470001 6.63920929 -8.00415039 5.64916992 C-7.98083397 4.37342857 -7.98083397 4.37342857 -7.95704651 3.07191467 C-7.59504426 -1.37255407 -3.63683857 0.0022402 0 0 Z " fill="#E5EFF6" transform="translate(24.798828125,99.87060546875)"/>
<path d="M0 0 C0.87760986 -0.00315216 1.75521973 -0.00630432 2.65942383 -0.009552 C3.61357178 -0.00752777 4.56771973 -0.00550354 5.55078125 -0.00341797 C6.52362061 -0.00437469 7.49645996 -0.00533142 8.4987793 -0.00631714 C10.56005925 -0.00699905 12.62134133 -0.00514399 14.68261719 -0.00097656 C17.84965813 0.00437153 21.01655725 -0.00092119 24.18359375 -0.00732422 C26.1809899 -0.00666344 28.17838596 -0.00538228 30.17578125 -0.00341797 C31.1299292 -0.0054422 32.08407715 -0.00746643 33.06713867 -0.009552 C34.38355347 -0.00482376 34.38355347 -0.00482376 35.7265625 0 C36.50298096 0.00079559 37.27939941 0.00159119 38.0793457 0.00241089 C39.86328125 0.12939453 39.86328125 0.12939453 40.86328125 1.12939453 C40.99256577 3.30127881 41.05186516 5.47734758 41.08447266 7.65283203 C41.09597855 8.3341217 41.10748444 9.01541138 41.11933899 9.71734619 C41.15615838 11.97964907 41.18572126 14.24198039 41.21484375 16.50439453 C41.23794536 18.06999121 41.26133555 19.63558366 41.28500366 21.20117188 C41.33352119 24.48645463 41.37844504 27.77176236 41.42089844 31.05712891 C41.47573613 35.27769845 41.53955632 39.49807565 41.60607338 43.71847534 C41.65604195 46.95250753 41.70121192 50.18659294 41.74491501 53.42071533 C41.76654578 54.9773372 41.78970265 56.5339386 41.81438065 58.09051514 C41.84810295 60.2622973 41.87537162 62.43406501 41.90087891 64.60595703 C41.91784821 65.8442627 41.9348175 67.08256836 41.95230103 68.35839844 C41.86328125 71.12939453 41.86328125 71.12939453 40.86328125 72.12939453 C37.94300653 72.26501278 35.04308212 72.3400378 32.12109375 72.37548828 C30.31509934 72.40842778 28.50910987 72.44163941 26.703125 72.47509766 C23.84362211 72.52253483 20.98413915 72.56695138 18.12451172 72.60620117 C15.37315579 72.64587277 12.62221952 72.69743267 9.87109375 72.75048828 C8.58659836 72.76310951 8.58659836 72.76310951 7.27615356 72.77598572 C6.47877777 72.79262772 5.68140198 72.80926971 4.85986328 72.82641602 C3.80848679 72.84187721 3.80848679 72.84187721 2.73587036 72.85765076 C0.53098665 73.04076051 0.53098665 73.04076051 -2.13671875 75.12939453 C-5.32421875 74.75439453 -5.32421875 74.75439453 -8.13671875 74.12939453 C-8.13671875 73.46939453 -8.13671875 72.80939453 -8.13671875 72.12939453 C-8.71421875 71.92314453 -9.29171875 71.71689453 -9.88671875 71.50439453 C-13.36438197 69.3791559 -15.44422071 66.18025412 -16.74609375 62.32470703 C-17.2519651 59.48171004 -17.23058654 56.76523084 -17.19921875 53.87939453 C-17.18568359 52.26291016 -17.18568359 52.26291016 -17.171875 50.61376953 C-17.16027344 49.79392578 -17.14867188 48.97408203 -17.13671875 48.12939453 C-16.42644531 47.92443359 -15.71617188 47.71947266 -14.984375 47.50830078 C-14.06527344 47.23888672 -13.14617187 46.96947266 -12.19921875 46.69189453 C-11.28269531 46.42505859 -10.36617188 46.15822266 -9.421875 45.88330078 C-7.19646945 45.33913402 -7.19646945 45.33913402 -6.13671875 44.12939453 C-6.02004296 42.78466134 -5.96955236 41.43407404 -5.94726562 40.08447266 C-5.9305481 39.22688354 -5.91383057 38.36929443 -5.89660645 37.48571777 C-5.88303101 36.5534436 -5.86945557 35.62116943 -5.85546875 34.66064453 C-5.83705933 33.71000122 -5.8186499 32.75935791 -5.79968262 31.77990723 C-5.74073067 28.72980126 -5.68799544 25.67963864 -5.63671875 22.62939453 C-5.5692988 18.61885255 -5.49563019 14.60849978 -5.41796875 10.59814453 C-5.40439331 9.66587036 -5.39081787 8.73359619 -5.37683105 7.77307129 C-5.36011353 6.91548218 -5.343396 6.05789307 -5.32617188 5.17431641 C-5.3136438 4.41566284 -5.30111572 3.65700928 -5.28820801 2.87536621 C-4.98848391 -0.57906873 -2.98758202 0.00306136 0 0 Z " fill="#203E5F" transform="translate(119.13671875,83.87060546875)"/>
<path d="M0 0 C0.99 0.33 1.98 0.66 3 1 C3.495 5.95 3.495 5.95 4 11 C5.464375 10.979375 6.92875 10.95875 8.4375 10.9375 C9.95832518 10.91607993 11.48071962 10.92820036 13 11 C14.58272601 12.58272601 14.34735747 14.38034003 14.5625 16.5625 C14.64628906 17.38878906 14.73007813 18.21507813 14.81640625 19.06640625 C14.87699219 19.70449219 14.93757813 20.34257813 15 21 C17.64 21.33 20.28 21.66 23 22 C21.576875 21.5978125 21.576875 21.5978125 20.125 21.1875 C17 20 17 20 15 17 C15 15.68 15 14.36 15 13 C17.475 12.505 17.475 12.505 20 12 C20.185625 10.7934375 20.185625 10.7934375 20.375 9.5625 C20.58125 8.716875 20.7875 7.87125 21 7 C21.66 6.67 22.32 6.34 23 6 C23.33 5.34 23.66 4.68 24 4 C24.99 4.495 24.99 4.495 26 5 C25.83792557 5.5702037 25.67585114 6.14040741 25.50886536 6.72789001 C24.99639046 9.01611676 24.86907419 11.01265121 24.8581543 13.35375977 C24.85111984 14.2046669 24.84408539 15.05557404 24.83683777 15.93226624 C24.83059135 17.29804054 24.83059135 17.29804054 24.82421875 18.69140625 C24.80103451 20.62436002 24.77691776 22.55730278 24.75195312 24.49023438 C24.71674456 27.53417487 24.68743326 30.57770613 24.67407227 33.62182617 C24.65864541 36.56218558 24.61848857 39.50135852 24.57421875 42.44140625 C24.57612717 43.35394669 24.57803558 44.26648712 24.58000183 45.2066803 C24.45970273 51.39093591 24.45970273 51.39093591 22.46411133 54.03491211 C20 55 20 55 12 56 C12.495 64.91 12.495 64.91 13 74 C6 75 6 75 2 74 C1.67 57.83 1.34 41.66 1 25 C-2.278784 23.907072 -4.76284411 23.84216128 -8.21557617 23.79467773 C-9.4966777 23.77473251 -10.77777924 23.75478729 -12.09770203 23.73423767 C-13.49612304 23.7172546 -14.89454531 23.70037575 -16.29296875 23.68359375 C-17.7235829 23.66301834 -19.15419105 23.64202171 -20.58479309 23.62062073 C-24.34780006 23.56546067 -28.11086135 23.51602471 -31.8739624 23.46777344 C-35.71485216 23.41751407 -39.55566316 23.36185117 -43.39648438 23.30664062 C-50.93092287 23.19913327 -58.46542691 23.09767189 -66 23 C-66 22.67 -66 22.34 -66 22 C-56.76 22 -47.52 22 -38 22 C-37.67 21.34 -37.34 20.68 -37 20 C-37 20.66 -37 21.32 -37 22 C-36.34 22 -35.68 22 -35 22 C-34.95101562 21.28972656 -34.90203125 20.57945313 -34.8515625 19.84765625 C-34.77679688 18.92855469 -34.70203125 18.00945312 -34.625 17.0625 C-34.55539063 16.14597656 -34.48578125 15.22945312 -34.4140625 14.28515625 C-34.27742188 13.53105469 -34.14078125 12.77695313 -34 12 C-31.15464275 10.57732138 -28.63781448 10.78028131 -25.4609375 10.68359375 C-23.50800781 10.62075195 -23.50800781 10.62075195 -21.515625 10.55664062 C-20.13541955 10.51682701 -18.75521117 10.47711478 -17.375 10.4375 C-15.98696585 10.39430593 -14.59894472 10.35069135 -13.2109375 10.30664062 C-9.80739744 10.20028 -6.40378222 10.09825286 -3 10 C-3.0309375 9.05898437 -3.061875 8.11796875 -3.09375 7.1484375 C-2.9891762 3.63650088 -2.33340462 2.527855 0 0 Z " fill="#F0F5FC" transform="translate(90,76)"/>
<path d="M0 0 C2.64 0 5.28 0 8 0 C8.1535914 9.10950671 8.3017731 18.21908038 8.4429636 27.3287878 C8.50868908 31.55835236 8.57630906 35.78786926 8.64819336 40.01733398 C8.71743964 44.09562245 8.78179482 48.17396094 8.84269524 52.25238228 C8.86685314 53.81180203 8.89280202 55.37119506 8.92053413 56.93055534 C8.95894479 59.10722545 8.99110362 61.28390181 9.02172852 63.46069336 C9.04171402 64.70201523 9.06169952 65.9433371 9.08229065 67.22227478 C9 70 9 70 8 71 C5.1883662 71.08861992 2.40141745 71.11522355 -0.41015625 71.09765625 C-1.25219101 71.0962413 -2.09422577 71.09482635 -2.96177673 71.09336853 C-5.66205335 71.08775263 -8.36224828 71.07519748 -11.0625 71.0625 C-12.88867068 71.05748705 -14.71484266 71.05292379 -16.54101562 71.04882812 C-21.02737542 71.03777804 -25.51367384 71.02050279 -30 71 C-29.57122559 70.20625977 -29.14245117 69.41251953 -28.70068359 68.59472656 C-28.14719238 67.53737305 -27.59370117 66.48001953 -27.0234375 65.390625 C-26.47091309 64.34938477 -25.91838867 63.30814453 -25.34912109 62.23535156 C-23.28388509 57.28267196 -23.58135133 53.30288309 -24 48 C-28.95 46.515 -28.95 46.515 -34 45 C-34 42.69 -34 40.38 -34 38 C-28.06 38 -22.12 38 -16 38 C-15.67 36.68 -15.34 35.36 -15 34 C-14.34 34 -13.68 34 -13 34 C-13 34.66 -13 35.32 -13 36 C-11.02 36 -9.04 36 -7 36 C-6.855625 35.360625 -6.71125 34.72125 -6.5625 34.0625 C-6 32 -6 32 -5 31 C-7.31 31 -9.62 31 -12 31 C-12 30.34 -12 29.68 -12 29 C-5.25 28.875 -5.25 28.875 -3 30 C-3 30.99 -3 31.98 -3 33 C-2.01 32.505 -2.01 32.505 -1 32 C-0.67 21.44 -0.34 10.88 0 0 Z " fill="#1D3B59" transform="translate(152,85)"/>
<path d="M0 0 C1.18084671 0.00022659 2.36169342 0.00045319 3.57832336 0.00068665 C4.84306992 0.0161705 6.10781647 0.03165436 7.41088867 0.04760742 C8.71338058 0.05185226 10.0158725 0.05609711 11.35783386 0.06047058 C14.80868009 0.07188605 18.25914325 0.10132401 21.70983887 0.13458252 C25.23578619 0.16535509 28.76179768 0.17915594 32.2878418 0.1940918 C39.19768454 0.22460332 46.10647745 0.28332954 53.01635742 0.34057617 C53.01635742 11.89057617 53.01635742 23.44057617 53.01635742 35.34057617 C30.90635742 35.34057617 8.79635742 35.34057617 -13.98364258 35.34057617 C-13.98364258 32.37057617 -13.98364258 29.40057617 -13.98364258 26.34057617 C-13.65364258 26.34057617 -13.32364258 26.34057617 -12.98364258 26.34057617 C-12.98364258 28.98057617 -12.98364258 31.62057617 -12.98364258 34.34057617 C8.46635742 34.34057617 29.91635742 34.34057617 52.01635742 34.34057617 C51.52135742 30.38057617 51.52135742 30.38057617 51.01635742 26.34057617 C50.68635742 28.65057617 50.35635742 30.96057617 50.01635742 33.34057617 C38.49490241 33.5529984 27.35008838 33.69563715 16.01635742 31.34057617 C16.01635742 31.01057617 16.01635742 30.68057617 16.01635742 30.34057617 C17.66635742 30.34057617 19.31635742 30.34057617 21.01635742 30.34057617 C21.01635742 29.02057617 21.01635742 27.70057617 21.01635742 26.34057617 C22.66635742 26.34057617 24.31635742 26.34057617 26.01635742 26.34057617 C26.01635742 25.68057617 26.01635742 25.02057617 26.01635742 24.34057617 C26.51135742 23.84557617 26.51135742 23.84557617 27.01635742 23.34057617 C26.97848223 21.52548047 26.86143717 19.71171532 26.70385742 17.90307617 C26.62522461 16.91436523 26.5465918 15.9256543 26.46557617 14.90698242 C26.24213167 12.18328362 26.24213167 12.18328362 24.01635742 10.34057617 C24.67635742 9.02057617 25.33635742 7.70057617 26.01635742 6.34057617 C25.35635742 6.34057617 24.69635742 6.34057617 24.01635742 6.34057617 C23.74823242 6.97995117 23.48010742 7.61932617 23.20385742 8.27807617 C22.01635742 10.34057617 22.01635742 10.34057617 19.01635742 11.34057617 C18.23260742 11.48495117 17.44885742 11.62932617 16.64135742 11.77807617 C13.93518025 12.35797128 11.55570599 13.25228393 9.01635742 14.34057617 C8.68635742 13.68057617 8.35635742 13.02057617 8.01635742 12.34057617 C7.02635742 12.83557617 7.02635742 12.83557617 6.01635742 13.34057617 C5.68635742 13.01057617 5.35635742 12.68057617 5.01635742 12.34057617 C4.11396995 15.0477386 3.8978444 16.57834386 3.91870117 19.35229492 C3.92353516 20.48828125 3.92353516 20.48828125 3.9284668 21.6472168 C3.9368457 22.43290039 3.94522461 23.21858398 3.95385742 24.02807617 C3.95836914 24.82536133 3.96288086 25.62264648 3.9675293 26.4440918 C3.97929892 28.40961874 3.99723394 30.37510702 4.01635742 32.34057617 C1.21261164 33.74244906 -0.87890242 33.24171893 -3.98364258 32.96557617 C-5.59239258 32.83022461 -5.59239258 32.83022461 -7.23364258 32.69213867 C-9.98364258 32.34057617 -9.98364258 32.34057617 -11.98364258 31.34057617 C-11.98364258 25.07057617 -11.98364258 18.80057617 -11.98364258 12.34057617 C-9.21912225 10.95831601 -6.93750627 11.2453223 -3.85864258 11.27807617 C-2.76293945 11.28709961 -1.66723633 11.29612305 -0.53833008 11.30541992 C0.3047168 11.31702148 1.14776367 11.32862305 2.01635742 11.34057617 C2.01635742 9.69057617 2.01635742 8.04057617 2.01635742 6.34057617 C-1.61364258 6.34057617 -5.24364258 6.34057617 -8.98364258 6.34057617 C-8.98364258 7.00057617 -8.98364258 7.66057617 -8.98364258 8.34057617 C-6.01364258 8.34057617 -3.04364258 8.34057617 0.01635742 8.34057617 C0.01635742 8.67057617 0.01635742 9.00057617 0.01635742 9.34057617 C-3.61364258 9.34057617 -7.24364258 9.34057617 -10.98364258 9.34057617 C-11.29614258 6.52807617 -11.29614258 6.52807617 -10.98364258 3.34057617 C-7.3350447 0.48718586 -4.56301493 -0.02931273 0 0 Z M32.01635742 7.34057617 C31.50790289 10.0869983 31.50790289 10.0869983 31.32885742 13.27807617 C31.24249023 14.35959961 31.15612305 15.44112305 31.06713867 16.55541992 C30.80193579 19.29793665 30.80193579 19.29793665 32.01635742 21.34057617 C31.02635742 21.83557617 31.02635742 21.83557617 30.01635742 22.34057617 C31.66635742 22.67057617 33.31635742 23.00057617 35.01635742 23.34057617 C35.01635742 22.68057617 35.01635742 22.02057617 35.01635742 21.34057617 C35.67635742 21.67057617 36.33635742 22.00057617 37.01635742 22.34057617 C40.57505088 22.72739068 42.35903595 22.80247774 45.32885742 20.71557617 C47.4599607 17.71624563 48.09029052 16.03723096 48.01635742 12.34057617 C46.04847123 8.74537607 46.04847123 8.74537607 43.01635742 6.34057617 C39.20586093 5.65193223 35.51752453 5.58999262 32.01635742 7.34057617 Z " fill="#EAF4FB" transform="translate(34.983642578125,109.659423828125)"/>
<path d="M0 0 C0.71055038 -0.00175232 1.42110077 -0.00350464 2.15318298 -0.00531006 C4.51295378 -0.00972824 6.87265025 -0.00679072 9.23242188 -0.00341797 C10.86527521 -0.00409102 12.49812845 -0.00506105 14.13098145 -0.00631714 C17.55754549 -0.00779407 20.98408351 -0.00563973 24.41064453 -0.00097656 C28.81271689 0.00472073 33.21472828 0.00144169 37.6167984 -0.00454903 C40.98985253 -0.00815478 44.3628921 -0.00701599 47.73594666 -0.00442123 C49.35953275 -0.003752 50.98312014 -0.00458025 52.60670471 -0.00690079 C54.87195358 -0.00942755 57.13710238 -0.00558641 59.40234375 0 C61.33974426 0.00119339 61.33974426 0.00119339 63.31628418 0.00241089 C66.20117188 0.12939453 66.20117188 0.12939453 67.20117188 1.12939453 C67.29436637 2.66422423 67.31862988 4.20331536 67.31469727 5.7409668 C67.31458397 7.21237877 67.31458397 7.21237877 67.31446838 8.71351624 C67.3093071 9.78017014 67.30414581 10.84682404 67.29882812 11.94580078 C67.29741318 13.03199203 67.29599823 14.11818329 67.29454041 15.23728943 C67.28892236 18.72218528 67.2763668 22.20701795 67.26367188 25.69189453 C67.2586592 28.0480134 67.25409589 30.40413327 67.25 32.76025391 C67.23894707 38.54998917 67.22219138 44.33968734 67.20117188 50.12939453 C69.18117188 50.45939453 71.16117187 50.78939453 73.20117188 51.12939453 C73.76367188 53.06689453 73.76367188 53.06689453 74.20117188 55.12939453 C72.40128788 56.92927852 69.95117311 56.24932457 67.55561829 56.2538147 C66.74569931 56.25021942 65.93578033 56.24662415 65.10131836 56.24291992 C64.25261169 56.24306595 63.40390503 56.24321198 62.52947998 56.24336243 C59.71038297 56.24266301 56.89135117 56.23486931 54.07226562 56.22705078 C52.12313371 56.2251867 50.17400133 56.22376275 48.22486877 56.22276306 C43.08410356 56.21893708 37.9433664 56.20910612 32.8026123 56.19805908 C27.5611204 56.18784668 22.31962398 56.18326581 17.078125 56.17822266 C6.78579493 56.16748392 -3.50651427 56.15040655 -13.79882812 56.12939453 C-14.12882813 54.47939453 -14.45882813 52.82939453 -14.79882812 51.12939453 C-12.81882812 50.46939453 -10.83882812 49.80939453 -8.79882812 49.12939453 C-8.78336693 48.23070396 -8.78336693 48.23070396 -8.76759338 47.31385803 C-8.65975848 41.10129365 -8.54514268 34.88888112 -8.42651367 28.67651367 C-8.38309073 26.3552568 -8.34142128 24.03396645 -8.30151367 21.71264648 C-8.24398873 18.38401175 -8.18024388 15.05554668 -8.11523438 11.72705078 C-8.09852188 10.68227066 -8.08180939 9.63749054 -8.06459045 8.56105042 C-8.04464523 7.60012985 -8.02470001 6.63920929 -8.00415039 5.64916992 C-7.98083397 4.37342857 -7.98083397 4.37342857 -7.95704651 3.07191467 C-7.59504426 -1.37255407 -3.63683857 0.0022402 0 0 Z M-4.79882812 4.12939453 C-4.88756345 7.23169597 -4.914085 10.31226812 -4.89648438 13.41455078 C-4.89547729 14.23918823 -4.89447021 15.06382568 -4.89343262 15.91345215 C-4.88818404 19.00628034 -4.8742229 22.09908877 -4.86132812 25.19189453 C-4.84070312 32.10126953 -4.82007813 39.01064453 -4.79882812 46.12939453 C17.97117187 46.12939453 40.74117187 46.12939453 64.20117188 46.12939453 C64.20117188 31.93939453 64.20117188 17.74939453 64.20117188 3.12939453 C52.13965079 3.10032956 52.13965079 3.10032956 40.078125 3.08056641 C35.16185432 3.07457852 30.24560218 3.06747969 25.3293457 3.05395508 C21.36770359 3.04312428 17.40608135 3.03711729 13.44442558 3.03451729 C11.92968877 3.03266339 10.41495309 3.02904344 8.90022469 3.02366447 C6.78575375 3.01645146 4.67136594 3.0154037 2.55688477 3.01586914 C1.35109268 3.01364853 0.1453006 3.01142792 -1.09703064 3.00914001 C-3.71557214 2.82114992 -3.71557214 2.82114992 -4.79882812 4.12939453 Z " fill="#293D55" transform="translate(24.798828125,99.87060546875)"/>
<path d="M0 0 C12.54 0 25.08 0 38 0 C38 0.66 38 1.32 38 2 C37.34 2 36.68 2 36 2 C35.78601563 2.54140625 35.57203125 3.0828125 35.3515625 3.640625 C33.51922057 6.8392797 31.00203394 9.20964484 28.375 11.75 C27.859375 12.25660156 27.34375 12.76320313 26.8125 13.28515625 C25.54616661 14.52803902 24.2736856 15.76465276 23 17 C23.99 17.33 24.98 17.66 26 18 C26.33 19.65 26.66 21.3 27 23 C27.33 22.34 27.66 21.68 28 21 C30 21 32 21 34 21 C34.495 22.485 34.495 22.485 35 24 C35.495 22.515 35.495 22.515 36 21 C36.99 21 37.98 21 39 21 C39.495 23.475 39.495 23.475 40 26 C40.99 26.33 41.98 26.66 43 27 C35.5841376 31.18075464 26.91520375 28.65701462 19 27 C19 26.34 19 25.68 19 25 C18.34 25 17.68 25 17 25 C17 25.66 17 26.32 17 27 C16.34 27 15.68 27 15 27 C15 28.65 15 30.3 15 32 C13.68 31.67 12.36 31.34 11 31 C11.33 29.68 11.66 28.36 12 27 C8.88794071 28.98512949 8.88794071 28.98512949 7.25 32.1875 C7.1675 32.785625 7.085 33.38375 7 34 C6.34 34 5.68 34 5 34 C5 32.68 5 31.36 5 30 C3.35 29.67 1.7 29.34 0 29 C0 28.01 0 27.02 0 26 C0.99 25.67 1.98 25.34 3 25 C2.01 24.67 1.02 24.34 0 24 C0 23.01 0 22.02 0 21 C2.31 21.33 4.62 21.66 7 22 C7 21.34 7 20.68 7 20 C7.639375 20.185625 8.27875 20.37125 8.9375 20.5625 C9.9584375 20.7790625 9.9584375 20.7790625 11 21 C11.33 20.67 11.66 20.34 12 20 C8.04 19.67 4.08 19.34 0 19 C0 12.73 0 6.46 0 0 Z " fill="#9BC9E8" transform="translate(69,43)"/>
<path d="M0 0 C1.80868813 0.00333092 1.80868813 0.00333092 3.65391541 0.00672913 C4.64899864 0.00651009 4.64899864 0.00651009 5.66418457 0.00628662 C7.86644207 0.00698571 10.06861596 0.01477787 12.27085876 0.02259827 C13.79400588 0.02446246 15.31715359 0.02588636 16.84030151 0.02688599 C20.85657903 0.03071105 24.87282059 0.04054124 28.88908386 0.05158997 C33.70399991 0.06359902 38.51892795 0.06820638 43.33385468 0.07404327 C50.65532899 0.08375301 57.97672436 0.10290961 65.29820251 0.12025452 C65.29820251 14.31025452 65.29820251 28.50025452 65.29820251 43.12025452 C42.52820251 43.12025452 19.75820251 43.12025452 -3.70179749 43.12025452 C-3.72242249 36.21087952 -3.74304749 29.30150452 -3.76429749 22.18275452 C-3.77340149 19.99916321 -3.78250549 17.8155719 -3.79188538 15.56581116 C-3.79480447 13.84567832 -3.79735304 12.1255448 -3.79945374 10.40541077 C-3.8045697 9.50367126 -3.80968567 8.60193176 -3.81495667 7.67286682 C-3.81526631 5.48833707 -3.76425618 3.30389122 -3.70179749 1.12025452 C-2.70179749 0.12025452 -2.70179749 0.12025452 0 0 Z M0.29820251 10.12025452 C-0.11926357 13.24660661 -0.11926357 13.24660661 0.29820251 16.12025452 C3.92820251 16.12025452 7.55820251 16.12025452 11.29820251 16.12025452 C11.29820251 15.79025452 11.29820251 15.46025452 11.29820251 15.12025452 C8.32820251 15.12025452 5.35820251 15.12025452 2.29820251 15.12025452 C2.29820251 14.46025452 2.29820251 13.80025452 2.29820251 13.12025452 C5.92820251 13.12025452 9.55820251 13.12025452 13.29820251 13.12025452 C13.29820251 14.77025452 13.29820251 16.42025452 13.29820251 18.12025452 C12.45515564 18.10865295 11.61210876 18.09705139 10.74351501 18.08509827 C9.64781189 18.07607483 8.55210876 18.06705139 7.42320251 18.05775452 C6.33265564 18.04615295 5.24210876 18.03455139 4.11851501 18.02259827 C1.34642706 17.92281149 1.34642706 17.92281149 -0.70179749 19.12025452 C-0.70179749 23.74025452 -0.70179749 28.36025452 -0.70179749 33.12025452 C-1.36179749 33.12025452 -2.02179749 33.12025452 -2.70179749 33.12025452 C-2.70179749 36.09025452 -2.70179749 39.06025452 -2.70179749 42.12025452 C19.40820251 42.12025452 41.51820251 42.12025452 64.29820251 42.12025452 C64.29820251 30.57025452 64.29820251 19.02025452 64.29820251 7.12025452 C56.69855571 7.05729334 49.09985681 6.9971952 41.50017548 6.96500397 C37.96097624 6.94918099 34.42199356 6.92804648 30.88291931 6.89393616 C26.81950315 6.85501849 22.75631531 6.84052905 18.69273376 6.82728577 C17.42798721 6.81180191 16.16324066 6.79631805 14.86016846 6.78036499 C13.67932175 6.7801384 12.49847504 6.7799118 11.28184509 6.77967834 C9.72630669 6.76968559 9.72630669 6.76968559 8.13934326 6.75949097 C4.81606789 7.18147521 2.92993598 8.06210423 0.29820251 10.12025452 Z " fill="#D8E8F7" transform="translate(23.701797485351563,102.87974548339844)"/>
<path d="M0 0 C0.33 0 0.66 0 1 0 C1 14.19 1 28.38 1 43 C4.27791321 44.31116529 7.47054933 45.52764307 10.8125 46.625 C11.60269531 46.88539063 12.39289063 47.14578125 13.20703125 47.4140625 C13.79871094 47.60742188 14.39039063 47.80078125 15 48 C15.6958528 56.13374602 14.81788712 62.25737908 10 69 C7.70145553 71.42148987 6.06754757 72.4393179 3 74 C-0.4375 73.8125 -0.4375 73.8125 -3 73 C-3 72.34 -3 71.68 -3 71 C-3.5775 70.79375 -4.155 70.5875 -4.75 70.375 C-8.22766322 68.24976137 -10.30750196 65.05085959 -11.609375 61.1953125 C-12.11524635 58.35231551 -12.09386779 55.63583631 -12.0625 52.75 C-12.04896484 51.13351563 -12.04896484 51.13351563 -12.03515625 49.484375 C-12.02355469 48.66453125 -12.01195313 47.8446875 -12 47 C-11.28972656 46.79503906 -10.57945313 46.59007812 -9.84765625 46.37890625 C-8.92855469 46.10949219 -8.00945312 45.84007812 -7.0625 45.5625 C-6.14597656 45.29566406 -5.22945313 45.02882812 -4.28515625 44.75390625 C-2.0597507 44.20973949 -2.0597507 44.20973949 -1 43 C-0.87814857 41.65016252 -0.82233169 40.29425299 -0.79467773 38.93920898 C-0.77473251 38.07839218 -0.75478729 37.21757538 -0.73423767 36.33067322 C-0.71752518 35.39526199 -0.70081268 34.45985077 -0.68359375 33.49609375 C-0.6524221 32.06657127 -0.6524221 32.06657127 -0.62062073 30.60816956 C-0.55501823 27.5513559 -0.49619082 24.49445344 -0.4375 21.4375 C-0.39432494 19.37043337 -0.35071099 17.30337586 -0.30664062 15.23632812 C-0.19932599 10.15764405 -0.09808909 5.0788703 0 0 Z " fill="#73A36E" transform="translate(114,85)"/>
<path d="M0 0 C0.33 0 0.66 0 1 0 C1 15.84 1 31.68 1 48 C25.42 47.67 49.84 47.34 75 47 C75 47.66 75 48.32 75 49 C76.98 49.33 78.96 49.66 81 50 C81.5625 51.9375 81.5625 51.9375 82 54 C80.20011601 55.79988399 77.75000124 55.11993004 75.35444641 55.12442017 C74.54452744 55.12082489 73.73460846 55.11722961 72.90014648 55.11352539 C72.05143982 55.11367142 71.20273315 55.11381744 70.32830811 55.1139679 C67.50921109 55.11326848 64.69017929 55.10547478 61.87109375 55.09765625 C59.92196183 55.09579217 57.97282945 55.09436822 56.0236969 55.09336853 C50.88293168 55.08954255 45.74219453 55.07971159 40.60144043 55.06866455 C35.35994852 55.05845215 30.1184521 55.05387128 24.87695312 55.04882812 C14.58462306 55.03808939 4.29231386 55.02101201 -6 55 C-6.33 53.35 -6.66 51.7 -7 50 C-5.02 49.34 -3.04 48.68 -1 48 C-0.67 32.16 -0.34 16.32 0 0 Z " fill="#254467" transform="translate(17,101)"/>
<path d="M0 0 C14.52 0 29.04 0 44 0 C44 0.33 44 0.66 44 1 C41.69 1 39.38 1 37 1 C37 11.56 37 22.12 37 33 C36.01 33.33 35.02 33.66 34 34 C33.18101378 30.42649959 32.88188042 27.14340521 32.90234375 23.48046875 C32.90484131 22.55903076 32.90733887 21.63759277 32.90991211 20.68823242 C32.91901611 19.53299072 32.92812012 18.37774902 32.9375 17.1875 C32.9684375 11.6496875 32.9684375 11.6496875 33 6 C23.1 5.34 13.2 4.68 3 4 C3.33 12.58 3.66 21.16 4 30 C3.34 30 2.68 30 2 30 C2 34.29 2 38.58 2 43 C1.67 43 1.34 43 1 43 C0.67 28.81 0.34 14.62 0 0 Z M4 20 C13.24 20 22.48 20 32 20 C31.34 20.66 30.68 21.32 30 22 C30.66 22.33 31.32 22.66 32 23 C32 24.32 32 25.64 32 27 C22.76 27.33 13.52 27.66 4 28 C4 25.36 4 22.72 4 20 Z " fill="#335376" transform="translate(115,84)"/>
<path d="M0 0 C1.80868813 0.00333092 1.80868813 0.00333092 3.65391541 0.00672913 C4.64899864 0.00651009 4.64899864 0.00651009 5.66418457 0.00628662 C7.86644207 0.00698571 10.06861596 0.01477787 12.27085876 0.02259827 C13.79400588 0.02446246 15.31715359 0.02588636 16.84030151 0.02688599 C20.85657903 0.03071105 24.87282059 0.04054124 28.88908386 0.05158997 C33.70399991 0.06359902 38.51892795 0.06820638 43.33385468 0.07404327 C50.65532899 0.08375301 57.97672436 0.10290961 65.29820251 0.12025452 C65.29820251 14.31025452 65.29820251 28.50025452 65.29820251 43.12025452 C42.52820251 43.12025452 19.75820251 43.12025452 -3.70179749 43.12025452 C-3.72242249 36.21087952 -3.74304749 29.30150452 -3.76429749 22.18275452 C-3.77340149 19.99916321 -3.78250549 17.8155719 -3.79188538 15.56581116 C-3.79480447 13.84567832 -3.79735304 12.1255448 -3.79945374 10.40541077 C-3.8045697 9.50367126 -3.80968567 8.60193176 -3.81495667 7.67286682 C-3.81526631 5.48833707 -3.76425618 3.30389122 -3.70179749 1.12025452 C-2.70179749 0.12025452 -2.70179749 0.12025452 0 0 Z M-2.70179749 1.12025452 C-2.70179749 14.65025452 -2.70179749 28.18025452 -2.70179749 42.12025452 C19.40820251 42.12025452 41.51820251 42.12025452 64.29820251 42.12025452 C64.29820251 30.24025452 64.29820251 18.36025452 64.29820251 6.12025452 C54.51549314 5.87065833 54.51549314 5.87065833 44.73228455 5.64222717 C43.5191156 5.60661682 42.30594666 5.57100647 41.05601501 5.53431702 C39.18647156 5.48718567 39.18647156 5.48718567 37.27915955 5.43910217 C34.29820251 5.12025452 34.29820251 5.12025452 32.29820251 3.12025452 C42.85820251 2.79025452 53.41820251 2.46025452 64.29820251 2.12025452 C64.29820251 1.79025452 64.29820251 1.46025452 64.29820251 1.12025452 C42.18820251 1.12025452 20.07820251 1.12025452 -2.70179749 1.12025452 Z " fill="#B6C8DC" transform="translate(23.701797485351563,102.87974548339844)"/>
<path d="M0 0 C2.31 0 4.62 0 7 0 C7 19.47 7 38.94 7 59 C6.01 59 5.02 59 4 59 C3.67 53.72 3.34 48.44 3 43 C2.67 43 2.34 43 2 43 C1.67 50.26 1.34 57.52 1 65 C0.67 65 0.34 65 0 65 C0 43.55 0 22.1 0 0 Z " fill="#142D49" transform="translate(152,85)"/>
<path d="M0 0 C0.33 0 0.66 0 1 0 C1 15.84 1 31.68 1 48 C25.42 47.67 49.84 47.34 75 47 C75 47.66 75 48.32 75 49 C76.98 49.33 78.96 49.66 81 50 C81 50.33 81 50.66 81 51 C51.96 51 22.92 51 -7 51 C-5 50 -3 49 -1 48 C-0.67 32.16 -0.34 16.32 0 0 Z " fill="#3E5B7A" transform="translate(17,101)"/>
<path d="M0 0 C0.33 0 0.66 0 1 0 C1 12.54 1 25.08 1 38 C-23.09 38 -47.18 38 -72 38 C-72 35.36 -72 32.72 -72 30 C-71.34 29.67 -70.68 29.34 -70 29 C-70 30.98 -70 32.96 -70 35 C-47.23 35 -24.46 35 -1 35 C-0.67 23.45 -0.34 11.9 0 0 Z " fill="#172E46" transform="translate(90,111)"/>
<path d="M0 0 C0.66 0.99 1.32 1.98 2 3 C4.84100433 3.28618725 7.46310581 3.37815744 10.30517578 3.34057617 C11.16378204 3.34101425 12.02238831 3.34145233 12.90701294 3.34190369 C15.75334178 3.33980874 18.59908619 3.31644467 21.4453125 3.29296875 C23.41543252 3.2873753 25.3855567 3.28310402 27.35568237 3.28010559 C32.5475003 3.26863705 37.73906746 3.23915262 42.93078613 3.20599365 C48.22595833 3.17533601 53.52117094 3.16160948 58.81640625 3.14648438 C69.21104783 3.11428482 79.60550308 3.06306426 90 3 C90 3.66 90 4.32 90 5 C77.83004017 9.05665328 61.95415 7.30366709 49.24243164 7.55761719 C45.91209263 7.62551802 42.5820674 7.70317567 39.25195312 7.78125 C37.11459562 7.82611016 34.97722609 7.87040168 32.83984375 7.9140625 C31.36160378 7.94990952 31.36160378 7.94990952 29.85350037 7.98648071 C24.75808313 8.07901769 20.02234185 7.85673806 15 7 C13.06392392 6.91484271 11.1254404 6.86957919 9.1875 6.875 C8.25292969 6.87242187 7.31835938 6.86984375 6.35546875 6.8671875 C3.97960329 6.84513489 3.97960329 6.84513489 2 8 C1.67 7.01 1.34 6.02 1 5 C0.34 4.67 -0.32 4.34 -1 4 C-0.67 2.68 -0.34 1.36 0 0 Z " fill="#BDCFE0" transform="translate(9,152)"/>
<path d="M0 0 C0.33 0 0.66 0 1 0 C1.1535914 9.10950671 1.3017731 18.21908038 1.4429636 27.3287878 C1.50868908 31.55835236 1.57630906 35.78786926 1.64819336 40.01733398 C1.71743964 44.09562245 1.78179482 48.17396094 1.84269524 52.25238228 C1.86685314 53.81180203 1.89280202 55.37119506 1.92053413 56.93055534 C1.95894479 59.10722545 1.99110362 61.28390181 2.02172852 63.46069336 C2.04171402 64.70201523 2.06169952 65.9433371 2.08229065 67.22227478 C2 70 2 70 1 71 C-0.68608966 71.07205511 -2.37500659 71.08386068 -4.0625 71.0625 C-5.44115234 71.04896484 -5.44115234 71.04896484 -6.84765625 71.03515625 C-7.55792969 71.02355469 -8.26820313 71.01195312 -9 71 C-8.01 70.505 -8.01 70.505 -7 70 C-6.67 58.45 -6.34 46.9 -6 35 C-5.01 35 -4.02 35 -3 35 C-2.67 42.59 -2.34 50.18 -2 58 C-1.67 58 -1.34 58 -1 58 C-0.67 38.86 -0.34 19.72 0 0 Z " fill="#1F364E" transform="translate(159,85)"/>
<path d="M0 0 C1.01642578 -0.00128906 2.03285156 -0.00257812 3.08007812 -0.00390625 C4.68592773 0.00189453 4.68592773 0.00189453 6.32421875 0.0078125 C7.38318359 0.00394531 8.44214844 0.00007813 9.53320312 -0.00390625 C11.06364258 -0.00197266 11.06364258 -0.00197266 12.625 0 C13.56126221 0.00112793 14.49752441 0.00225586 15.4621582 0.00341797 C17.79516181 0.12182187 19.77890712 0.47276808 22.01171875 1.1328125 C22.01171875 3.1128125 22.01171875 5.0928125 22.01171875 7.1328125 C18.83384334 8.1921043 16.58582932 8.24740189 13.25 8.23046875 C12.13173828 8.22724609 11.01347656 8.22402344 9.86132812 8.22070312 C8.69408203 8.21232422 7.52683594 8.20394531 6.32421875 8.1953125 C5.14537109 8.19080078 3.96652344 8.18628906 2.75195312 8.18164062 C-0.16150914 8.16984523 -3.07486988 8.1533852 -5.98828125 8.1328125 C-6.03069848 5.79986475 -6.02921062 3.46578683 -5.98828125 1.1328125 C-4.31797544 -0.53749331 -2.2902733 0.00276914 0 0 Z " fill="#355A82" transform="translate(124.98828125,90.8671875)"/>
<path d="M0 0 C0 10.89 0 21.78 0 33 C-0.99 32.67 -1.98 32.34 -3 32 C-3.02505615 31.36908447 -3.0501123 30.73816895 -3.07592773 30.08813477 C-3.19154137 27.24603175 -3.31442316 24.40428917 -3.4375 21.5625 C-3.47681641 20.56927734 -3.51613281 19.57605469 -3.55664062 18.55273438 C-3.59853516 17.60849609 -3.64042969 16.66425781 -3.68359375 15.69140625 C-3.72025146 14.81685791 -3.75690918 13.94230957 -3.79467773 13.04125977 C-3.78181066 11.0072598 -3.78181066 11.0072598 -5 10 C-5.33 11.98 -5.66 13.96 -6 16 C-8.31 16 -10.62 16 -13 16 C-13 15.34 -13 14.68 -13 14 C-14.32 14 -15.64 14 -17 14 C-17.33 15.65 -17.66 17.3 -18 19 C-18.33 17.68 -18.66 16.36 -19 15 C-20.07314453 15.29197266 -20.07314453 15.29197266 -21.16796875 15.58984375 C-24.3882199 16.05622495 -26.24689158 15.58436947 -29.3125 14.5625 C-30.19550781 14.27503906 -31.07851562 13.98757812 -31.98828125 13.69140625 C-32.65214844 13.46324219 -33.31601563 13.23507813 -34 13 C-32 11 -32 11 -30.1081543 10.78881836 C-28.9776062 10.81407593 -28.9776062 10.81407593 -27.82421875 10.83984375 C-26.99599609 10.85080078 -26.16777344 10.86175781 -25.31445312 10.87304688 C-24.44755859 10.89431641 -23.58066406 10.91558594 -22.6875 10.9375 C-15.25559512 11.27892818 -15.25559512 11.27892818 -8 10 C-7.67 9.34 -7.34 8.68 -7 8 C-5.68 8 -4.36 8 -3 8 C-3 5.69 -3 3.38 -3 1 C-1 0 -1 0 0 0 Z " fill="#284666" transform="translate(152,117)"/>
<path d="M0 0 C0.66 0 1.32 0 2 0 C1.690625 0.928125 1.690625 0.928125 1.375 1.875 C1.25125 2.57625 1.1275 3.2775 1 4 C1.66 4.66 2.32 5.32 3 6 C3.27450545 9.34896654 3.08628804 12.63476663 3 16 C-2.61 16 -8.22 16 -14 16 C-14 14.02 -14 12.04 -14 10 C-14.66 10 -15.32 10 -16 10 C-16 9.34 -16 8.68 -16 8 C-12.2960194 6.01880107 -9.11309294 4.75767502 -5 4 C-1.82547916 2.74202164 -1.82547916 2.74202164 0 0 Z " fill="#DFEDE9" transform="translate(59,116)"/>
<path d="M0 0 C-0.99 0.495 -0.99 0.495 -2 1 C-2 1.66 -2 2.32 -2 3 C-1.34 3.33 -0.68 3.66 0 4 C-2 5 -4 6 -6 7 C-6.65213292 9.02463255 -6.65213292 9.02463255 -7 11 C-8.98 10.34 -10.96 9.68 -13 9 C-12.67 10.65 -12.34 12.3 -12 14 C-9.69 14.66 -7.38 15.32 -5 16 C-5.33 17.98 -5.66 19.96 -6 22 C-10.63404081 20.80838951 -12.4048178 18.53344734 -14.984375 14.75390625 C-16.83868537 11.55165489 -17.11487296 8.92623449 -17.0625 5.3125 C-17.05347656 4.50425781 -17.04445313 3.69601563 -17.03515625 2.86328125 C-17.02355469 2.24839844 -17.01195313 1.63351563 -17 1 C-10.55411399 -2.04714611 -6.76632168 -2.17712665 0 0 Z " fill="#55904D" transform="translate(122,134)"/>
<path d="M0 0 C2.9375 2.625 2.9375 2.625 5 6 C5.0739331 9.69665479 4.44360328 11.37566946 2.3125 14.375 C-0.62449613 16.43883512 -2.48612204 16.31944345 -6 16 C-6 15.34 -6 14.68 -6 14 C-6.99 14 -7.98 14 -9 14 C-10.60160199 10.79679603 -10.48770192 7.47573478 -10 4 C-7.33255368 -0.10376358 -4.77008811 -0.97348737 0 0 Z " fill="#A9C7C9" transform="translate(78,116)"/>
<path d="M0 0 C0.33 0 0.66 0 1 0 C1 14.19 1 28.38 1 43 C4.25232304 44.30092922 6.98252134 45.33483557 10.3125 46.125 C11.529375 46.41375 12.74625 46.7025 14 47 C13.67 51.29 13.34 55.58 13 60 C12.34 59.67 11.68 59.34 11 59 C11.33 55.7 11.66 52.4 12 49 C10.96875 49.020625 9.9375 49.04125 8.875 49.0625 C5 49 5 49 1.875 48.375 C-1.44592899 47.94183535 -3.00435647 48.62362324 -6 50 C-6.99 50 -7.98 50 -9 50 C-8.67 55.61 -8.34 61.22 -8 67 C-11.89352126 61.80863832 -12.13179448 59.12509172 -12.0625 52.75 C-12.04896484 51.13351563 -12.04896484 51.13351563 -12.03515625 49.484375 C-12.02355469 48.66453125 -12.01195313 47.8446875 -12 47 C-11.28972656 46.79503906 -10.57945313 46.59007812 -9.84765625 46.37890625 C-8.92855469 46.10949219 -8.00945312 45.84007812 -7.0625 45.5625 C-6.14597656 45.29566406 -5.22945313 45.02882812 -4.28515625 44.75390625 C-2.0597507 44.20973949 -2.0597507 44.20973949 -1 43 C-0.87814857 41.65016252 -0.82233169 40.29425299 -0.79467773 38.93920898 C-0.77473251 38.07839218 -0.75478729 37.21757538 -0.73423767 36.33067322 C-0.71752518 35.39526199 -0.70081268 34.45985077 -0.68359375 33.49609375 C-0.6524221 32.06657127 -0.6524221 32.06657127 -0.62062073 30.60816956 C-0.55501823 27.5513559 -0.49619082 24.49445344 -0.4375 21.4375 C-0.39432494 19.37043337 -0.35071099 17.30337586 -0.30664062 15.23632812 C-0.19932599 10.15764405 -0.09808909 5.0788703 0 0 Z " fill="#80A387" transform="translate(114,85)"/>
<path d="M0 0 C0 0.66 0 1.32 0 2 C-1.32 2 -2.64 2 -4 2 C-4 2.66 -4 3.32 -4 4 C-2.02 4.66 -0.04 5.32 2 6 C2.144375 5.38125 2.28875 4.7625 2.4375 4.125 C3 2 3 2 4 0 C5.32 0 6.64 0 8 0 C8.99 2.31 9.98 4.62 11 7 C11.66 7 12.32 7 13 7 C13 8.32 13 9.64 13 11 C6.4 11 -0.2 11 -7 11 C-7 10.01 -7 9.02 -7 8 C-6.34 7.67 -5.68 7.34 -5 7 C-5.99 6.34 -6.98 5.68 -8 5 C-8 3.68 -8 2.36 -8 1 C-5.29120665 -0.35439668 -2.99066732 -0.06501451 0 0 Z " fill="#D5E6F2" transform="translate(78,47)"/>
<path d="M0 0 C0.66 0 1.32 0 2 0 C2 0.66 2 1.32 2 2 C2.83192871 2.03758423 2.83192871 2.03758423 3.68066406 2.07592773 C6.20398843 2.19227927 8.72697536 2.31482754 11.25 2.4375 C12.55904297 2.49647461 12.55904297 2.49647461 13.89453125 2.55664062 C14.73886719 2.59853516 15.58320312 2.64042969 16.453125 2.68359375 C17.61569824 2.73858032 17.61569824 2.73858032 18.80175781 2.79467773 C20.9574976 2.99603015 22.91801475 3.41729297 25 4 C20.18750826 7.8499934 15.8948342 7.23579337 10 7 C10 10.63 10 14.26 10 18 C13.3 17.67 16.6 17.34 20 17 C20 17.99 20 18.98 20 20 C16.04 19.67 12.08 19.34 8 19 C7.03929566 16.11788698 6.89418117 14.30149956 6.9375 11.3125 C6.94652344 10.50425781 6.95554687 9.69601563 6.96484375 8.86328125 C6.97644531 8.24839844 6.98804687 7.63351563 7 7 C5.02 7 3.04 7 1 7 C0.67 8.65 0.34 10.3 0 12 C-0.33 12 -0.66 12 -1 12 C-1.33 8.7 -1.66 5.4 -2 2 C-1.34 2 -0.68 2 0 2 C0 1.34 0 0.68 0 0 Z " fill="#D8EAF8" transform="translate(86,68)"/>
<path d="M0 0 C2.64 0 5.28 0 8 0 C8 0.66 8 1.32 8 2 C6.35 2 4.7 2 3 2 C2.67 3.98 2.34 5.96 2 8 C3.32 8.99 4.64 9.98 6 11 C4.02 11.99 4.02 11.99 2 13 C3.01320313 12.98839844 4.02640625 12.97679687 5.0703125 12.96484375 C6.42187314 12.95545791 7.7734358 12.94635857 9.125 12.9375 C10.12273437 12.92493164 10.12273437 12.92493164 11.140625 12.91210938 C15.20681354 12.89217708 19.0120092 13.21109839 23 14 C23 13.01 23 12.02 23 11 C24.32 11.33 25.64 11.66 27 12 C24.2383675 15.08186374 21.70098636 17.65661952 17.54736328 18.49511719 C14.8640037 18.58863506 12.24306649 18.52552857 9.5625 18.375 C8.17901367 18.33439453 8.17901367 18.33439453 6.76757812 18.29296875 C4.51069631 18.22280662 2.25503128 18.115205 0 18 C0 12.06 0 6.12 0 0 Z " fill="#2F6CB2" transform="translate(69,44)"/>
<path d="M0 0 C1.98 0.495 1.98 0.495 4 1 C4 2.32 4 3.64 4 5 C4.94875 4.79375 5.8975 4.5875 6.875 4.375 C8.421875 4.189375 8.421875 4.189375 10 4 C10.66 4.66 11.32 5.32 12 6 C11.625 8.625 11.625 8.625 11 11 C10.34 10.01 9.68 9.02 9 8 C8.34 8.66 7.68 9.32 7 10 C4.875 9.625 4.875 9.625 3 9 C3.020625 9.94875 3.04125 10.8975 3.0625 11.875 C3 15 3 15 2 17 C4.31 16.34 6.62 15.68 9 15 C8.67 14.01 8.34 13.02 8 12 C8.66 12 9.32 12 10 12 C10.66 13.32 11.32 14.64 12 16 C13.65 15.67 15.3 15.34 17 15 C17.33 15.66 17.66 16.32 18 17 C18.33 16.01 18.66 15.02 19 14 C19.33 15.32 19.66 16.64 20 18 C16.17128327 19.23697002 12.35293434 19.14786169 8.375 19.125 C7.694375 19.12886719 7.01375 19.13273437 6.3125 19.13671875 C1.25344122 19.12672061 1.25344122 19.12672061 -1 18 C-0.505 9.09 -0.505 9.09 0 0 Z " fill="#16364C" transform="translate(129,131)"/>
<path d="M0 0 C0.66 0 1.32 0 2 0 C2 0.66 2 1.32 2 2 C2.66 2 3.32 2 4 2 C4 1.34 4 0.68 4 0 C4.66 0 5.32 0 6 0 C6.33 0.99 6.66 1.98 7 3 C7.33 2.01 7.66 1.02 8 0 C8.99 0 9.98 0 11 0 C11.33 0.66 11.66 1.32 12 2 C12.33 1.34 12.66 0.68 13 0 C15 0 17 0 19 0 C19.33 0.99 19.66 1.98 20 3 C20.33 2.01 20.66 1.02 21 0 C21.99 0 22.98 0 24 0 C24.33 1.65 24.66 3.3 25 5 C25.99 5.33 26.98 5.66 28 6 C20.5841376 10.18075464 11.91520375 7.65701462 4 6 C4 5.34 4 4.68 4 4 C3.34 4 2.68 4 2 4 C2 4.66 2 5.32 2 6 C1.34 6 0.68 6 0 6 C0 4.02 0 2.04 0 0 Z " fill="#BBD4F2" transform="translate(84,64)"/>
<path d="M0 0 C2.31 0.33 4.62 0.66 7 1 C6.67 1.66 6.34 2.32 6 3 C5.01 3 4.02 3 3 3 C3 9.27 3 15.54 3 22 C8.94 22 14.88 22 21 22 C21 22.33 21 22.66 21 23 C18.36 23.66 15.72 24.32 13 25 C13 24.34 13 23.68 13 23 C12.01 23 11.02 23 10 23 C10 23.66 10 24.32 10 25 C7.69 24.67 5.38 24.34 3 24 C2.67 25.32 2.34 26.64 2 28 C0.68 28 -0.64 28 -2 28 C-2 21.73 -2 15.46 -2 9 C-0.02 9.99 -0.02 9.99 2 11 C1.34 7.37 0.68 3.74 0 0 Z " fill="#CCE8F9" transform="translate(66,40)"/>
<path d="M0 0 C2.31 0 4.62 0 7 0 C7 19.47 7 38.94 7 59 C6.34 58.67 5.68 58.34 5 58 C5.33 39.52 5.66 21.04 6 2 C5.34 2 4.68 2 4 2 C4 10.25 4 18.5 4 27 C3.01 27 2.02 27 1 27 C0.67 18.09 0.34 9.18 0 0 Z " fill="#0D243C" transform="translate(152,85)"/>
<path d="M0 0 C1.32 0 2.64 0 4 0 C4 0.66 4 1.32 4 2 C4.67333374 1.99777939 5.34666748 1.99555878 6.04040527 1.99327087 C12.50802847 1.97290742 18.97564223 1.95784748 25.44329071 1.94818783 C28.76527338 1.94305422 32.08720837 1.93555633 35.40917969 1.92456055 C52.30142605 1.8701314 69.12950673 2.10888744 86 3 C86 3.33 86 3.66 86 4 C57.95 4 29.9 4 1 4 C0.67 2.68 0.34 1.36 0 0 Z " fill="#1F3A54" transform="translate(10,152)"/>
<path d="M0 0 C0.495 0.99 0.495 0.99 1 2 C4.02934491 2.65772428 4.02934491 2.65772428 7 3 C7 3.33 7 3.66 7 4 C-13.46 4 -33.92 4 -55 4 C-55 3.34 -55 2.68 -55 2 C-53.98855675 1.9845388 -53.98855675 1.9845388 -52.9566803 1.96876526 C-45.96556418 1.86094231 -38.97458333 1.74632557 -31.98364258 1.62768555 C-29.37136656 1.58425876 -26.75906072 1.54258962 -24.14672852 1.50268555 C-20.40111281 1.44516993 -16.65564831 1.38142236 -12.91015625 1.31640625 C-11.73413345 1.29969376 -10.55811066 1.28298126 -9.34645081 1.26576233 C-8.26540573 1.24581711 -7.18436066 1.22587189 -6.07055664 1.20532227 C-5.11347305 1.18977798 -4.15638947 1.1742337 -3.17030334 1.15821838 C-1.02137306 1.2393139 -1.02137306 1.2393139 0 0 Z " fill="#47698F" transform="translate(91,148)"/>
<path d="M0 0 C1.32 0.66 2.64 1.32 4 2 C3.21625 2.4125 2.4325 2.825 1.625 3.25 C-1.10000193 5.06666796 -1.8478044 6.02349469 -3 9 C-3.33 9.66 -3.66 10.32 -4 11 C-4.99 11.33 -5.98 11.66 -7 12 C-7.33 13.65 -7.66 15.3 -8 17 C-6.68 16.67 -5.36 16.34 -4 16 C-4 16.66 -4 17.32 -4 18 C-2.9275 17.814375 -1.855 17.62875 -0.75 17.4375 C2.40391546 17.0695432 4.09818492 16.95534657 7 18 C6.67 18.99 6.34 19.98 6 21 C6.33 21.99 6.66 22.98 7 24 C6.01 24 5.02 24 4 24 C3.505 21.525 3.505 21.525 3 19 C2.01 19 1.02 19 0 19 C-0.33 20.65 -0.66 22.3 -1 24 C-1.33 24 -1.66 24 -2 24 C-2 22.35 -2 20.7 -2 19 C-2.66 19 -3.32 19 -4 19 C-4.33 19.66 -4.66 20.32 -5 21 C-5.99 20.34 -6.98 19.68 -8 19 C-8 20.65 -8 22.3 -8 24 C-9.9451 21.08235 -10.45276317 19.37462715 -11 16 C-11.99 15.67 -12.98 15.34 -14 15 C-13.07316406 14.08476563 -12.14632812 13.16953125 -11.19140625 12.2265625 C-9.98163961 11.0261739 -8.77201135 9.82564583 -7.5625 8.625 C-6.95083984 8.02171875 -6.33917969 7.4184375 -5.70898438 6.796875 C-5.12568359 6.21679688 -4.54238281 5.63671875 -3.94140625 5.0390625 C-3.40201416 4.50490723 -2.86262207 3.97075195 -2.30688477 3.42041016 C-0.89153023 2.01347612 -0.89153023 2.01347612 0 0 Z " fill="#CCE9FB" transform="translate(105,45)"/>
<path d="M0 0 C0.91644287 0.00523682 1.83288574 0.01047363 2.77709961 0.01586914 C3.76645508 0.0190918 4.75581055 0.02231445 5.77514648 0.02563477 C6.81606445 0.03401367 7.85698242 0.04239258 8.92944336 0.05102539 C10.49662109 0.05779297 10.49662109 0.05779297 12.09545898 0.06469727 C14.68600996 0.07652627 17.27644895 0.0930085 19.86694336 0.11352539 C20.19694336 0.77352539 20.52694336 1.43352539 20.86694336 2.11352539 C19.21694336 2.44352539 17.56694336 2.77352539 15.86694336 3.11352539 C16.19694336 3.77352539 16.52694336 4.43352539 16.86694336 5.11352539 C15.60237305 5.16250977 14.33780273 5.21149414 13.03491211 5.26196289 C11.37473389 5.33699919 9.71457872 5.41254666 8.05444336 5.48852539 C7.22106445 5.51946289 6.38768555 5.55040039 5.52905273 5.58227539 C4.72661133 5.62094727 3.92416992 5.65961914 3.09741211 5.69946289 C2.359021 5.73088379 1.62062988 5.76230469 0.85986328 5.79467773 C-1.44655252 6.02187153 -1.44655252 6.02187153 -4.13305664 8.11352539 C-3.12157072 0.16613602 -3.12157072 0.16613602 0 0 Z " fill="#1B395B" transform="translate(122.133056640625,110.886474609375)"/>
<path d="M0 0 C0 1.65 0 3.3 0 5 C-2.475 4.01 -2.475 4.01 -5 3 C-5 2.34 -5 1.68 -5 1 C-16.22 1 -27.44 1 -39 1 C-38.01 0.01 -37.02 -0.98 -36 -2 C-34.68 -2 -33.36 -2 -32 -2 C-31.29875 -2.165 -30.5975 -2.33 -29.875 -2.5 C-19.78418345 -4.25492462 -9.88895122 -1.99940544 0 0 Z " fill="#CEE8FA" transform="translate(112,42)"/>
<path d="M0 0 C0.91644287 0.00523682 1.83288574 0.01047363 2.77709961 0.01586914 C3.76645508 0.0190918 4.75581055 0.02231445 5.77514648 0.02563477 C6.81606445 0.03401367 7.85698242 0.04239258 8.92944336 0.05102539 C10.49662109 0.05779297 10.49662109 0.05779297 12.09545898 0.06469727 C14.68600996 0.07652627 17.27644895 0.0930085 19.86694336 0.11352539 C20.19694336 1.10352539 20.52694336 2.09352539 20.86694336 3.11352539 C15.20027669 3.11352539 9.53361003 3.11352539 3.86694336 3.11352539 C3.86694336 3.77352539 3.86694336 4.43352539 3.86694336 5.11352539 C2.54694336 5.11352539 1.22694336 5.11352539 -0.13305664 5.11352539 C-0.13305664 5.77352539 -0.13305664 6.43352539 -0.13305664 7.11352539 C7.12694336 7.11352539 14.38694336 7.11352539 21.86694336 7.11352539 C21.86694336 7.44352539 21.86694336 7.77352539 21.86694336 8.11352539 C13.61694336 8.11352539 5.36694336 8.11352539 -3.13305664 8.11352539 C-3.13305664 0.16674732 -3.13305664 0.16674732 0 0 Z " fill="#2F4F77" transform="translate(122.133056640625,90.886474609375)"/>
<path d="M0 0 C1.60279192 0.00015914 3.20558896 0.00585476 4.80834961 0.01586914 C5.65038437 0.01728409 6.49241913 0.01869904 7.35997009 0.02015686 C10.06024671 0.02577276 12.76044163 0.03832791 15.46069336 0.05102539 C17.28686404 0.05603834 19.11303602 0.06060161 20.93920898 0.06469727 C25.42556878 0.07574735 29.9118672 0.0930226 34.39819336 0.11352539 C34.39819336 0.44352539 34.39819336 0.77352539 34.39819336 1.11352539 C30.4511471 1.83488716 26.64163596 2.26844205 22.63256836 2.39477539 C21.05088867 2.45084961 21.05088867 2.45084961 19.43725586 2.50805664 C17.22893852 2.57886967 15.02060485 2.64917514 12.81225586 2.71899414 C11.23831055 2.77506836 11.23831055 2.77506836 9.63256836 2.83227539 C8.1973584 2.87771484 8.1973584 2.87771484 6.7331543 2.92407227 C4.37595536 2.9690549 4.37595536 2.9690549 2.39819336 4.11352539 C-0.31940772 4.1853436 -3.01040052 4.20652045 -5.72680664 4.17602539 C-6.4809082 4.17151367 -7.23500977 4.16700195 -8.01196289 4.16235352 C-9.87527791 4.15056038 -11.73855219 4.13262481 -13.60180664 4.11352539 C-10.40061861 1.97940004 -8.33641982 1.68183609 -4.60180664 1.11352539 C-3.60180664 0.11352539 -3.60180664 0.11352539 0 0 Z " fill="#B2C8DB" transform="translate(123.601806640625,155.886474609375)"/>
<path d="M0 0 C0.66 0 1.32 0 2 0 C2 9.9 2 19.8 2 30 C1.01 30.33 0.02 30.66 -1 31 C-1.8410478 27.3535194 -2.11764968 24.00049093 -2.09765625 20.26171875 C-2.09443359 19.19501953 -2.09121094 18.12832031 -2.08789062 17.02929688 C-2.07951172 15.92650391 -2.07113281 14.82371094 -2.0625 13.6875 C-2.05798828 12.56537109 -2.05347656 11.44324219 -2.04882812 10.28710938 C-2.03707313 7.5246849 -2.02064077 4.76237002 -2 2 C-1.34 2 -0.68 2 0 2 C0 1.34 0 0.68 0 0 Z " fill="#2E4E71" transform="translate(150,87)"/>
<path d="M0 0 C9.57 0 19.14 0 29 0 C29 0.66 29 1.32 29 2 C30.65 2 32.3 2 34 2 C34 2.33 34 2.66 34 3 C29.80078534 3.02476851 25.60160971 3.04289246 21.40234375 3.05493164 C19.97460184 3.05995206 18.54686504 3.06676972 17.11914062 3.07543945 C15.06378921 3.08760553 13.00850593 3.09325128 10.953125 3.09765625 C9.09929199 3.10551147 9.09929199 3.10551147 7.20800781 3.11352539 C4.5854329 3.02071737 2.48355406 2.78356673 0 2 C0 1.34 0 0.68 0 0 Z " fill="#1F3F61" transform="translate(14,152)"/>
<path d="M0 0 C8.25 0 16.5 0 25 0 C24.01 0.495 24.01 0.495 23 1 C22.690625 1.61875 22.38125 2.2375 22.0625 2.875 C20.9574531 5.08509381 19.89108398 6.42409668 18 8 C17.34 8 16.68 8 16 8 C15.81695312 7.36578125 15.63390625 6.7315625 15.4453125 6.078125 C14.08900123 3.64400014 14.08900123 3.64400014 10.7421875 3.171875 C9.46601562 3.03265625 8.18984375 2.8934375 6.875 2.75 C5.59367187 2.60046875 4.31234375 2.4509375 2.9921875 2.296875 C2.00476563 2.19890625 1.01734375 2.1009375 0 2 C0 1.34 0 0.68 0 0 Z " fill="#4B96D5" transform="translate(82,44)"/>
<path d="M0 0 C0.99 0 1.98 0 3 0 C3.33 0.99 3.66 1.98 4 3 C3.01 4.485 3.01 4.485 2 6 C2.99 6.33 3.98 6.66 5 7 C4.360625 7.4125 3.72125 7.825 3.0625 8.25 C0.79009069 10.17810487 0.39803561 11.11424181 0 14 C-0.66 14 -1.32 14 -2 14 C-2 12.68 -2 11.36 -2 10 C-3.65 9.67 -5.3 9.34 -7 9 C-7 8.01 -7 7.02 -7 6 C-6.01 5.67 -5.02 5.34 -4 5 C-4.99 4.67 -5.98 4.34 -7 4 C-7 3.01 -7 2.02 -7 1 C-4.69 1.33 -2.38 1.66 0 2 C0 1.34 0 0.68 0 0 Z " fill="#C7DFF5" transform="translate(76,63)"/>
<path d="M0 0 C-0.32742187 0.55171875 -0.65484375 1.1034375 -0.9921875 1.671875 C-2.16787715 4.38780923 -2.20248638 6.30551759 -2.125 9.25 C-2.10695313 10.14203125 -2.08890625 11.0340625 -2.0703125 11.953125 C-2.04710938 12.62859375 -2.02390625 13.3040625 -2 14 C-1.01 14.33 -0.02 14.66 1 15 C0.34 15 -0.32 15 -1 15 C-1 15.66 -1 16.32 -1 17 C-2.65 16.67 -4.3 16.34 -6 16 C-5.34 15.67 -4.68 15.34 -4 15 C-4.185625 14.360625 -4.37125 13.72125 -4.5625 13.0625 C-5.14357404 8.9949817 -4.95252847 5.00890243 -4 1 C-2 0 -2 0 0 0 Z M-12 16 C-10.02 16 -8.04 16 -6 16 C-6.33 16.66 -6.66 17.32 -7 18 C-8.65 17.67 -10.3 17.34 -12 17 C-12 16.67 -12 16.34 -12 16 Z M-27 18 C-21.39 18 -15.78 18 -10 18 C-10 18.66 -10 19.32 -10 20 C-15.50982274 21.37745568 -21.54045091 21.8198497 -27 20 C-27 19.34 -27 18.68 -27 18 Z " fill="#DEECF4" transform="translate(71,116)"/>
<path d="M0 0 C0.66 0 1.32 0 2 0 C2 2.64 2 5.28 2 8 C6.82194643 7.67495741 6.82194643 7.67495741 10.9375 5.4375 C11.4634375 4.7259375 11.4634375 4.7259375 12 4 C12 5.65 12 7.3 12 9 C9.18175808 10.40912096 6.82748718 10.11183553 3.6796875 10.09765625 C2.42285156 10.09443359 1.16601562 10.09121094 -0.12890625 10.08789062 C-1.44761719 10.07951172 -2.76632813 10.07113281 -4.125 10.0625 C-5.46484211 10.05748489 -6.804686 10.05292201 -8.14453125 10.04882812 C-11.42973206 10.03701086 -14.71484397 10.02053617 -18 10 C-14.31912647 7.54608431 -11.55644412 7.77197241 -7.3125 7.875 C-6.2596582 7.88853516 -6.2596582 7.88853516 -5.18554688 7.90234375 C-3.45688475 7.92586296 -1.72839855 7.96173287 0 8 C0 5.36 0 2.72 0 0 Z " fill="#E3E9F3" transform="translate(74,77)"/>
<path d="M0 0 C0.33 0.66 0.66 1.32 1 2 C0.01 3.485 0.01 3.485 -1 5 C-0.01 5.33 0.98 5.66 2 6 C2 6.66 2 7.32 2 8 C1.195625 8.28875 0.39125 8.5775 -0.4375 8.875 C-3.1326468 9.73262568 -3.1326468 9.73262568 -4 12 C-5.79133978 12.05391993 -7.58313899 12.09275571 -9.375 12.125 C-10.37273437 12.14820313 -11.37046875 12.17140625 -12.3984375 12.1953125 C-15 12 -15 12 -17 10 C-16.01 10 -15.02 10 -14 10 C-14 9.01 -14 8.02 -14 7 C-8.555 6.505 -8.555 6.505 -3 6 C-3 5.01 -3 4.02 -3 3 C-2.34 3 -1.68 3 -1 3 C-0.67 2.01 -0.34 1.02 0 0 Z " fill="#E0EBF2" transform="translate(81,128)"/>
<path d="M0 0 C2.31 0.33 4.62 0.66 7 1 C6.01 1.495 6.01 1.495 5 2 C5 2.66 5 3.32 5 4 C5.66 4.33 6.32 4.66 7 5 C4 6.5 4 6.5 1 8 C0.67 9.32 0.34 10.64 0 12 C-2.64 11.34 -5.28 10.68 -8 10 C-7.67 8.68 -7.34 7.36 -7 6 C-6.21625 5.855625 -5.4325 5.71125 -4.625 5.5625 C-2.03578982 5.12201075 -2.03578982 5.12201075 0 4 C0 2.68 0 1.36 0 0 Z " fill="#5E8F5F" transform="translate(115,133)"/>
<path d="M0 0 C0.91120605 0.01047363 1.82241211 0.02094727 2.76123047 0.03173828 C3.74736328 0.03818359 4.73349609 0.04462891 5.74951172 0.05126953 C7.29832031 0.07640625 7.29832031 0.07640625 8.87841797 0.10205078 C9.91869141 0.11107422 10.95896484 0.12009766 12.03076172 0.12939453 C14.60520889 0.15301331 17.17920009 0.18594929 19.75341797 0.22705078 C19.75341797 1.21705078 19.75341797 2.20705078 19.75341797 3.22705078 C17.44341797 3.22705078 15.13341797 3.22705078 12.75341797 3.22705078 C12.42341797 4.87705078 12.09341797 6.52705078 11.75341797 8.22705078 C11.42341797 6.90705078 11.09341797 5.58705078 10.75341797 4.22705078 C10.03798828 4.42169922 9.32255859 4.61634766 8.58544922 4.81689453 C5.36519807 5.28327573 3.50652639 4.81142026 0.44091797 3.78955078 C-0.88359375 3.35835937 -0.88359375 3.35835937 -2.23486328 2.91845703 C-2.89873047 2.69029297 -3.56259766 2.46212891 -4.24658203 2.22705078 C-2.24658203 0.22705078 -2.24658203 0.22705078 0 0 Z " fill="#214061" transform="translate(122.24658203125,127.77294921875)"/>
<path d="M0 0 C0 0.66 0 1.32 0 2 C-1.32 2 -2.64 2 -4 2 C-4 2.66 -4 3.32 -4 4 C-2.02 4.66 -0.04 5.32 2 6 C2.144375 5.38125 2.28875 4.7625 2.4375 4.125 C3 2 3 2 4 0 C5.32 0 6.64 0 8 0 C7.67 0.99 7.34 1.98 7 3 C6.96125079 4.66621616 6.9549714 6.33394172 7 8 C5.06183265 7.8858134 3.12444901 7.75826577 1.1875 7.625 C0.10855469 7.55539063 -0.97039062 7.48578125 -2.08203125 7.4140625 C-5 7 -5 7 -8 5 C-8 3.68 -8 2.36 -8 1 C-5.29120665 -0.35439668 -2.99066732 -0.06501451 0 0 Z " fill="#D4EFF9" transform="translate(78,47)"/>
<path d="M0 0 C0.33 0.66 0.66 1.32 1 2 C0.67 2.66 0.34 3.32 0 4 C0.66 4.33 1.32 4.66 2 5 C1 8 1 8 -2 10 C-3.9896995 10.39013716 -5.99019869 10.73202649 -8 11 C-8 10.34 -8 9.68 -8 9 C-8.66 9 -9.32 9 -10 9 C-10.33 7.35 -10.66 5.7 -11 4 C-10.113125 4.268125 -9.22625 4.53625 -8.3125 4.8125 C-4.79457985 5.39309751 -4.79457985 5.39309751 -2.125 2.5625 C-1.42375 1.716875 -0.7225 0.87125 0 0 Z " fill="#6D9B6A" transform="translate(120,139)"/>
<path d="M0 0 C3.3 0 6.6 0 10 0 C10 0.66 10 1.32 10 2 C7.36 2 4.72 2 2 2 C2 2.66 2 3.32 2 4 C4.64 4 7.28 4 10 4 C10 4.66 10 5.32 10 6 C9.01 6 8.02 6 7 6 C6.67 7.32 6.34 8.64 6 10 C4.02 10 2.04 10 0 10 C0 6.7 0 3.4 0 0 Z " fill="#E1EAF0" transform="translate(26,130)"/>
<path d="M0 0 C0.99 0 1.98 0 3 0 C4.20029908 2.40059817 4.11459743 3.89360649 4.09765625 6.5703125 C4.09282227 7.91416016 4.09282227 7.91416016 4.08789062 9.28515625 C4.07951172 10.22230469 4.07113281 11.15945312 4.0625 12.125 C4.05798828 13.06988281 4.05347656 14.01476562 4.04882812 14.98828125 C4.03702357 17.32558387 4.02055759 19.66276061 4 22 C3.01 21.67 2.02 21.34 1 21 C0.67 14.07 0.34 7.14 0 0 Z " fill="#264464" transform="translate(148,128)"/>
<path d="M0 0 C0.99 0 1.98 0 3 0 C3 3.3 3 6.6 3 10 C0.36 10 -2.28 10 -5 10 C-5 7.69 -5 5.38 -5 3 C-4.01 3 -3.02 3 -2 3 C-1.34 2.01 -0.68 1.02 0 0 Z " fill="#B0CBB7" transform="translate(59,122)"/>
<path d="M0 0 C2.64 0 5.28 0 8 0 C8 0.66 8 1.32 8 2 C6.35 2 4.7 2 3 2 C2.67 3.98 2.34 5.96 2 8 C3.32 8.99 4.64 9.98 6 11 C5.360625 11.2475 4.72125 11.495 4.0625 11.75 C1.50980961 12.96621634 1.50980961 12.96621634 1 17 C7.27 17 13.54 17 20 17 C20 17.33 20 17.66 20 18 C13.4 18 6.8 18 0 18 C0 12.06 0 6.12 0 0 Z " fill="#5E8BBC" transform="translate(69,44)"/>
<path d="M0 0 C0.33 0 0.66 0 1 0 C1.33 6.93 1.66 13.86 2 21 C1.34 21 0.68 21 0 21 C0 25.29 0 29.58 0 34 C-0.33 34 -0.66 34 -1 34 C-1.02926019 29.83334831 -1.04688594 25.66672341 -1.0625 21.5 C-1.07087891 20.32695313 -1.07925781 19.15390625 -1.08789062 17.9453125 C-1.10497844 11.86205118 -0.94502752 6.01245856 0 0 Z M2 11 C2.33 11 2.66 11 3 11 C3 13.64 3 16.28 3 19 C2.67 19 2.34 19 2 19 C2 16.36 2 13.72 2 11 Z " fill="#2B4C70" transform="translate(117,93)"/>
<path d="M0 0 C0.99 0.33 1.98 0.66 3 1 C2.68031467 4.51653861 2.37757864 6.53431968 0.125 9.3125 C-2 11 -2 11 -5 12 C-5.75 9.75 -5.75 9.75 -6 7 C-4.1875 4.6875 -4.1875 4.6875 -2 3 C-1.34 3 -0.68 3 0 3 C0 2.01 0 1.02 0 0 Z " fill="#619E4D" transform="translate(121,144)"/>
<path d="M0 0 C2.31 0.33 4.62 0.66 7 1 C6.67 1.66 6.34 2.32 6 3 C5.01 3 4.02 3 3 3 C3 7.95 3 12.9 3 18 C1.68 17.34 0.36 16.68 -1 16 C-1.75 12.375 -1.75 12.375 -2 9 C-0.02 9.99 -0.02 9.99 2 11 C1.34 7.37 0.68 3.74 0 0 Z " fill="#C5E5FB" transform="translate(66,40)"/>
<path d="M0 0 C4.70588235 0.70588235 4.70588235 0.70588235 6 2 C6.04063832 3.66617115 6.042721 5.33388095 6 7 C3.125 7.625 3.125 7.625 0 8 C-0.66 7.34 -1.32 6.68 -2 6 C-1.44444444 1.44444444 -1.44444444 1.44444444 0 0 Z " fill="#E8F6F7" transform="translate(73,120)"/>
<path d="M0 0 C0.33 0 0.66 0 1 0 C1 1.98 1 3.96 1 6 C5.2039909 7.28510622 9.18809744 6.98565357 13.5390625 6.83984375 C16 7 16 7 18 9 C11.73 9 5.46 9 -1 9 C-1 1 -1 1 0 0 Z " fill="#1A314A" transform="translate(19,140)"/>
<path d="M0 0 C0.66 0 1.32 0 2 0 C2 0.66 2 1.32 2 2 C2.66 2 3.32 2 4 2 C4 1.34 4 0.68 4 0 C4.66 0 5.32 0 6 0 C6.33 0.99 6.66 1.98 7 3 C7.33 2.01 7.66 1.02 8 0 C8.99 0 9.98 0 11 0 C11.33 1.98 11.66 3.96 12 6 C9.36 6 6.72 6 4 6 C4 5.34 4 4.68 4 4 C3.34 4 2.68 4 2 4 C2 4.66 2 5.32 2 6 C1.34 6 0.68 6 0 6 C0 4.02 0 2.04 0 0 Z " fill="#638AB5" transform="translate(84,64)"/>
<path d="M0 0 C0.99 0.33 1.98 0.66 3 1 C2.34 1 1.68 1 1 1 C1 1.66 1 2.32 1 3 C1.66 3 2.32 3 3 3 C3.33 8.61 3.66 14.22 4 20 C0.10647874 14.80863832 -0.13179448 12.12509172 -0.0625 5.75 C-0.04896484 4.13351563 -0.04896484 4.13351563 -0.03515625 2.484375 C-0.02355469 1.66453125 -0.01195313 0.8446875 0 0 Z " fill="#88B180" transform="translate(102,132)"/>
<path d="M0 0 C2.97 0 5.94 0 9 0 C9.33 1.98 9.66 3.96 10 6 C6.7 5.67 3.4 5.34 0 5 C0 3.35 0 1.7 0 0 Z " fill="#D2E0EE" transform="translate(26,122)"/>
<path d="M0 0 C3.63 0 7.26 0 11 0 C11 1.65 11 3.3 11 5 C7.37 5 3.74 5 0 5 C0 3.35 0 1.7 0 0 Z " fill="#C2D5E4" transform="translate(26,116)"/>
<path d="M0 0 C0.598125 0.226875 1.19625 0.45375 1.8125 0.6875 C1.3175 1.22375 0.8225 1.76 0.3125 2.3125 C-1.56239544 5.28108445 -1.42251425 7.24062427 -1.1875 10.6875 C-2.5075 10.6875 -3.8275 10.6875 -5.1875 10.6875 C-5.55141205 3.28795489 -5.55141205 3.28795489 -3.9375 0.625 C-2.1875 -0.3125 -2.1875 -0.3125 0 0 Z " fill="#5889B6" transform="translate(73.1875,117.3125)"/>
<path d="M0 0 C0.66 0.33 1.32 0.66 2 1 C1.33333333 2.33333333 0.66666667 3.66666667 0 5 C-0.268125 5.70125 -0.53625 6.4025 -0.8125 7.125 C-2.45874815 9.72433919 -4.11618134 10.01688 -7 11 C-10.64219115 12.70959993 -13.86691126 14.46942833 -17 17 C-17 16.01 -17 15.02 -17 14 C-12.64150348 9.89056042 -8.99235393 8 -3 8 C-2.690625 7.05125 -2.38125 6.1025 -2.0625 5.125 C-1 2 -1 2 0 0 Z " fill="#D4E5F5" transform="translate(62,34)"/>
<path d="M0 0 C0.66 0 1.32 0 2 0 C2.33 5.28 2.66 10.56 3 16 C-1.53225806 11.46774194 -1.53225806 11.46774194 -1.875 6.875 C-1.95492187 6.00617188 -2.03484375 5.13734375 -2.1171875 4.2421875 C-2 2 -2 2 0 0 Z " fill="#E8FBE9" transform="translate(100,132)"/>
<path d="M0 0 C4 4.625 4 4.625 4 8 C3.01 7.67 2.02 7.34 1 7 C0.01 7.99 -0.98 8.98 -2 10 C-3 8 -3 8 -3 7 C-3.65035814 5.65863633 -4.3162955 4.32467746 -5 3 C-4.01 3 -3.02 3 -2 3 C-1.67 2.34 -1.34 1.68 -1 1 C-0.67 0.67 -0.34 0.34 0 0 Z " fill="#DEEAEA" transform="translate(103,148)"/>
<path d="M0 0 C6.75 -0.125 6.75 -0.125 9 1 C9 4.3 9 7.6 9 11 C7.68 11.33 6.36 11.66 5 12 C5 11.34 5 10.68 5 10 C5.66 10 6.32 10 7 10 C6.34 7.69 5.68 5.38 5 3 C5.66 2.67 6.32 2.34 7 2 C4.69 2 2.38 2 0 2 C0 1.34 0 0.68 0 0 Z " fill="#173554" transform="translate(140,114)"/>
<path d="M0 0 C3.375 -0.125 3.375 -0.125 7 0 C7.66 0.66 8.32 1.32 9 2 C8.625 4.125 8.625 4.125 8 6 C6.35 6.33 4.7 6.66 3 7 C3.66 5.68 4.32 4.36 5 3 C4.34 2.67 3.68 2.34 3 2 C2.67 3.32 2.34 4.64 2 6 C1.34 6 0.68 6 0 6 C0 4.02 0 2.04 0 0 Z " fill="#DAF7FE" transform="translate(89,47)"/>
<path d="M0 0 C-0.99 0.495 -0.99 0.495 -2 1 C-2 1.66 -2 2.32 -2 3 C-4.97923003 3.02727678 -7.95820379 3.04697128 -10.9375 3.0625 C-12.18370117 3.07506836 -12.18370117 3.07506836 -13.45507812 3.08789062 C-19.05226441 3.10966956 -24.44733582 2.71159268 -30 2 C-30 1.67 -30 1.34 -30 1 C-26.1250877 0.83125237 -22.25005773 0.66537155 -18.375 0.5 C-16.73337891 0.42845703 -16.73337891 0.42845703 -15.05859375 0.35546875 C-13.99511719 0.31035156 -12.93164062 0.26523438 -11.8359375 0.21875 C-10.86188965 0.17685547 -9.8878418 0.13496094 -8.88427734 0.09179688 C-5.9208325 -0.00251964 -2.96473674 -0.01538125 0 0 Z " fill="#D4E6F3" transform="translate(158,157)"/>
<path d="M0 0 C2.97 0 5.94 0 9 0 C8.34 2.31 7.68 4.62 7 7 C4.69 6.67 2.38 6.34 0 6 C0.99 5.34 1.98 4.68 3 4 C2.01 3.67 1.02 3.34 0 3 C0 2.01 0 1.02 0 0 Z " fill="#7BA1C3" transform="translate(69,64)"/>
<path d="M0 0 C0.66 0 1.32 0 2 0 C2.33 2.97 2.66 5.94 3 9 C6.3 8.67 9.6 8.34 13 8 C13 8.99 13 9.98 13 11 C9.04 10.67 5.08 10.34 1 10 C-0.1577506 6.52674819 -0.06866652 3.63932552 0 0 Z " fill="#CBD9E6" transform="translate(93,77)"/>
<path d="M0 0 C0.99 0 1.98 0 3 0 C3 2.31 3 4.62 3 7 C0.69 7 -1.62 7 -4 7 C-4 5.68 -4 4.36 -4 3 C-2.68 3 -1.36 3 0 3 C0 2.01 0 1.02 0 0 Z " fill="#A4C2A9" transform="translate(49,125)"/>
<path d="M0 0 C0.66 0 1.32 0 2 0 C2 1.32 2 2.64 2 4 C2.99 4.33 3.98 4.66 5 5 C5.33 4.01 5.66 3.02 6 2 C6 3.98 6 5.96 6 8 C4.68 8 3.36 8 2 8 C2 7.34 2 6.68 2 6 C0.35 5.67 -1.3 5.34 -3 5 C-2 2 -2 2 0 0 Z " fill="#E5F1FD" transform="translate(79,70)"/>
<path d="M0 0 C0.33 0.66 0.66 1.32 1 2 C4.02934491 2.65772428 4.02934491 2.65772428 7 3 C7 3.33 7 3.66 7 4 C1.39 4 -4.22 4 -10 4 C-10.33 3.34 -10.66 2.68 -11 2 C-10.28972656 1.93941406 -9.57945313 1.87882813 -8.84765625 1.81640625 C-7.46900391 1.69072266 -7.46900391 1.69072266 -6.0625 1.5625 C-5.14597656 1.48128906 -4.22945313 1.40007812 -3.28515625 1.31640625 C-1.03840268 1.23955024 -1.03840268 1.23955024 0 0 Z " fill="#46688E" transform="translate(91,148)"/>
<path d="M0 0 C0.33 0.66 0.66 1.32 1 2 C-2.00313748 3.50156874 -4.79067522 3.09281204 -8.125 3.0625 C-9.40632813 3.05347656 -10.68765625 3.04445312 -12.0078125 3.03515625 C-13.48894531 3.01775391 -13.48894531 3.01775391 -15 3 C-15 2.34 -15 1.68 -15 1 C-10.03926578 -0.32286246 -5.08888488 -0.08893197 0 0 Z " fill="#D7E2F3" transform="translate(95,39)"/>
<path d="M0 0 C2.01822917 0.06510417 4.03645833 0.13020833 6.0546875 0.1953125 C6.0546875 0.8553125 6.0546875 1.5153125 6.0546875 2.1953125 C6.7146875 2.5253125 7.3746875 2.8553125 8.0546875 3.1953125 C7.3946875 3.8553125 6.7346875 4.5153125 6.0546875 5.1953125 C2.7546875 4.2053125 -0.5453125 3.2153125 -3.9453125 2.1953125 C-1.9453125 0.1953125 -1.9453125 0.1953125 0 0 Z " fill="#294B53" transform="translate(121.9453125,127.8046875)"/>
<path d="M0 0 C2.00720923 0.28674418 4.0085944 0.61866701 6 1 C3.53721199 3.46278801 1.29323018 3.99771255 -2 5 C-2 5.99 -2 6.98 -2 8 C-2.99 8 -3.98 8 -5 8 C-5 7.34 -5 6.68 -5 6 C-5.66 6 -6.32 6 -7 6 C-7 5.34 -7 4.68 -7 4 C-6.030625 3.525625 -5.06125 3.05125 -4.0625 2.5625 C-1.19522563 1.29806053 -1.19522563 1.29806053 0 0 Z " fill="#E1EEEF" transform="translate(50,120)"/>
<path d="M0 0 C0.66 0.99 1.32 1.98 2 3 C4.77262255 3.38394667 7.34323528 3.60342248 10.125 3.6875 C10.87910156 3.72166016 11.63320312 3.75582031 12.41015625 3.79101562 C14.27291201 3.87354278 16.13643326 3.93844711 18 4 C18 4.33 18 4.66 18 5 C10.74 5 3.48 5 -4 5 C-2.68 3.35 -1.36 1.7 0 0 Z " fill="#1D384C" transform="translate(126,151)"/>
<path d="M0 0 C2.31 0.33 4.62 0.66 7 1 C6.01 1.495 6.01 1.495 5 2 C5 2.66 5 3.32 5 4 C5.66 4.33 6.32 4.66 7 5 C3.91190305 6.76462683 2.76687864 7 -1 7 C-0.67 4.69 -0.34 2.38 0 0 Z " fill="#609754" transform="translate(115,133)"/>
<path d="M0 0 C4.62 0 9.24 0 14 0 C14 0.66 14 1.32 14 2 C12.41773035 2.19627391 10.83410729 2.38165538 9.25 2.5625 C8.36828125 2.66691406 7.4865625 2.77132812 6.578125 2.87890625 C4.11567549 2.99456676 2.33461936 2.73638695 0 2 C0 1.34 0 0.68 0 0 Z " fill="#DFEAF3" transform="translate(8,81)"/>
<path d="M0 0 C1 1 2 2 3 3 C3.886875 3.845625 4.77375 4.69125 5.6875 5.5625 C8 8 8 8 8 10 C5.37344067 9.64505955 3.42031739 9.27538036 1.1875 7.8125 C-0.51995571 5.20638339 -0.20267097 3.0400645 0 0 Z " fill="#78A76E" transform="translate(106,147)"/>
<path d="M0 0 C-0.33 1.32 -0.66 2.64 -1 4 C-2.98 4 -4.96 4 -7 4 C-7 3.34 -7 2.68 -7 2 C-7.99 1.67 -8.98 1.34 -10 1 C-6.1496895 -1.56687367 -4.41430237 -0.83288724 0 0 Z " fill="#91BAD2" transform="translate(79,128)"/>
<path d="M0 0 C0.99 0.33 1.98 0.66 3 1 C4.47965926 1.14573058 5.96403843 1.24663268 7.44921875 1.31640625 C8.29677734 1.35830078 9.14433594 1.40019531 10.01757812 1.44335938 C10.89865234 1.48267578 11.77972656 1.52199219 12.6875 1.5625 C14.02651367 1.62727539 14.02651367 1.62727539 15.39257812 1.69335938 C17.59490108 1.79935353 19.79733473 1.90142051 22 2 C22 2.33 22 2.66 22 3 C13.75 3 5.5 3 -3 3 C-2.01 2.01 -1.02 1.02 0 0 Z " fill="#C5EEFE" transform="translate(76,40)"/>
<path d="M0 0 C0.99 0 1.98 0 3 0 C3 0.66 3 1.32 3 2 C3.66 2.33 4.32 2.66 5 3 C4.38125 3.0825 3.7625 3.165 3.125 3.25 C0.81562433 3.81258459 0.81562433 3.81258459 -0.25 6.0625 C-0.4975 6.701875 -0.745 7.34125 -1 8 C-0.34 8 0.32 8 1 8 C0.67 9.65 0.34 11.3 0 13 C-0.66 12.67 -1.32 12.34 -2 12 C-2.28571429 3.42857143 -2.28571429 3.42857143 0 0 Z " fill="#DCE8F3" transform="translate(9,148)"/>
<path d="M0 0 C3.63 0 7.26 0 11 0 C10.01 0.495 10.01 0.495 9 1 C8.690625 1.61875 8.38125 2.2375 8.0625 2.875 C6.9574531 5.08509381 5.89108398 6.42409668 4 8 C3.34 8 2.68 8 2 8 C2.33 6.68 2.66 5.36 3 4 C4.32 3.67 5.64 3.34 7 3 C7 2.34 7 1.68 7 1 C4.69 1 2.38 1 0 1 C0 0.67 0 0.34 0 0 Z " fill="#588DBB" transform="translate(96,44)"/>
<path d="M0 0 C0.33 0.66 0.66 1.32 1 2 C-0.98 4.31 -2.96 6.62 -5 9 C-8 8 -8 8 -9.1875 5.9375 C-9.455625 5.298125 -9.72375 4.65875 -10 4 C-8.9171875 4.4021875 -8.9171875 4.4021875 -7.8125 4.8125 C-4.73609463 5.34894155 -4.73609463 5.34894155 -2.1875 2.5625 C-1.465625 1.716875 -0.74375 0.87125 0 0 Z " fill="#D5F0D8" transform="translate(120,139)"/>
<path d="M0 0 C1.2065625 0.0309375 1.2065625 0.0309375 2.4375 0.0625 C2.4375 3.0325 2.4375 6.0025 2.4375 9.0625 C1.7775 9.0625 1.1175 9.0625 0.4375 9.0625 C0.4375 6.7525 0.4375 4.4425 0.4375 2.0625 C-0.5525 2.0625 -1.5425 2.0625 -2.5625 2.0625 C-2.8925 3.0525 -3.2225 4.0425 -3.5625 5.0625 C-3.5625 0.08689024 -3.5625 0.08689024 0 0 Z " fill="#D8F0DD" transform="translate(51.5625,122.9375)"/>
<path d="M0 0 C2 0 4 0 6 0 C6 1.98 6 3.96 6 6 C4 6 2 6 0 6 C0 4.02 0 2.04 0 0 Z " fill="#6189B1" transform="translate(97,64)"/>
<path d="M0 0 C1.32 0.33 2.64 0.66 4 1 C3.67 2.65 3.34 4.3 3 6 C0.03 5.505 0.03 5.505 -3 5 C-2.01 3.35 -1.02 1.7 0 0 Z " fill="#1C324B" transform="translate(157,150)"/>
<path d="M0 0 C0.66 0 1.32 0 2 0 C2 0.66 2 1.32 2 2 C3.32 2.33 4.64 2.66 6 3 C4.625 4.5 4.625 4.5 3 6 C2.34 6 1.68 6 1 6 C0.67 7.98 0.34 9.96 0 12 C-0.33 12 -0.66 12 -1 12 C-1.33 8.7 -1.66 5.4 -2 2 C-1.34 2 -0.68 2 0 2 C0 1.34 0 0.68 0 0 Z " fill="#C8DEF1" transform="translate(86,68)"/>
<path d="M0 0 C0.99 0.33 1.98 0.66 3 1 C2.67 1.99 2.34 2.98 2 4 C3.65 3.67 5.3 3.34 7 3 C6.01 4.485 6.01 4.485 5 6 C2.375 6.1875 2.375 6.1875 0 6 C-0.33 6.99 -0.66 7.98 -1 9 C-1 7.68 -1 6.36 -1 5 C-1.66 4.67 -2.32 4.34 -3 4 C-2.67 3.34 -2.34 2.68 -2 2 C-1.34 2 -0.68 2 0 2 C0 1.34 0 0.68 0 0 Z " fill="#A3BED2" transform="translate(92,49)"/>
<path d="M0 0 C1.32 0.66 2.64 1.32 4 2 C3.21625 2.4125 2.4325 2.825 1.625 3.25 C-1.13999076 5.09332717 -1.64822635 6.10334219 -3 9 C-3.99 9.33 -4.98 9.66 -6 10 C-5.49477778 5.62140745 -2.82172778 3.18348776 0 0 Z " fill="#C2E4FB" transform="translate(105,45)"/>
<path d="M0 0 C0.66 0.33 1.32 0.66 2 1 C2 5.29 2 9.58 2 14 C1.34 14 0.68 14 0 14 C-0.19627391 12.41773035 -0.38165538 10.83410729 -0.5625 9.25 C-0.66691406 8.36828125 -0.77132812 7.4865625 -0.87890625 6.578125 C-0.99456676 4.11567549 -0.73638695 2.33461936 0 0 Z " fill="#143353" transform="translate(147,127)"/>
<path d="M0 0 C2.475 0.495 2.475 0.495 5 1 C4.67 1.66 4.34 2.32 4 3 C3.34 3 2.68 3 2 3 C2 3.66 2 4.32 2 5 C4.97 5 7.94 5 11 5 C11 5.33 11 5.66 11 6 C7.37 6 3.74 6 0 6 C0 4.02 0 2.04 0 0 Z " fill="#EBF9FE" transform="translate(24,113)"/>
<path d="M0 0 C1.98 0 3.96 0 6 0 C5.34 0.66 4.68 1.32 4 2 C4.66 2.66 5.32 3.32 6 4 C2.71303767 4.79953138 1.28976808 5.09658936 -2 4 C-2 3.34 -2 2.68 -2 2 C-1.34 2 -0.68 2 0 2 C0 1.34 0 0.68 0 0 Z " fill="#41658D" transform="translate(141,104)"/>
<path d="M0 0 C3 2 3 2 3.6875 5.125 C3.790625 6.07375 3.89375 7.0225 4 8 C1.36 8 -1.28 8 -4 8 C-4.33 7.34 -4.66 6.68 -5 6 C-2.03 6.495 -2.03 6.495 1 7 C0.67 4.69 0.34 2.38 0 0 Z " fill="#EFF8F9" transform="translate(84,48)"/>
<path d="M0 0 C0 0.66 0 1.32 0 2 C-4.95 2 -9.9 2 -15 2 C-10.59410693 -0.93726205 -5.06616281 -1.89981105 0 0 Z " fill="#BED8CF" transform="translate(125,158)"/>
<path d="M0 0 C0.66 0 1.32 0 2 0 C1.67 2.31 1.34 4.62 1 7 C-0.98 6.34 -2.96 5.68 -5 5 C-5 4.34 -5 3.68 -5 3 C-3.35 3 -1.7 3 0 3 C0 2.01 0 1.02 0 0 Z " fill="#5C8EB5" transform="translate(79,46)"/>
<path d="M0 0 C1.98 0 3.96 0 6 0 C6.66 1.32 7.32 2.64 8 4 C5 5 5 5 2 4 C2 3.34 2 2.68 2 2 C1.34 1.34 0.68 0.68 0 0 Z " fill="#8DB6B5" transform="translate(72,116)"/>
<path d="M0 0 C2.31 0 4.62 0 7 0 C7 0.99 7 1.98 7 3 C4.69 3.33 2.38 3.66 0 4 C0 2.68 0 1.36 0 0 Z " fill="#BED4E4" transform="translate(22,105)"/>
<path d="M0 0 C0.99 0.33 1.98 0.66 3 1 C3 1.66 3 2.32 3 3 C4.98 3 6.96 3 9 3 C9 3.66 9 4.32 9 5 C6.36 5 3.72 5 1 5 C0.67 3.35 0.34 1.7 0 0 Z " fill="#D8E1EA" transform="translate(104,93)"/>
<path d="M0 0 C0.66 0 1.32 0 2 0 C2 3.3 2 6.6 2 10 C0.68 10 -0.64 10 -2 10 C-2 9.34 -2 8.68 -2 8 C-1.34 8 -0.68 8 0 8 C0 5.36 0 2.72 0 0 Z " fill="#DDE4ED" transform="translate(74,77)"/>
<path d="M0 0 C0.99 0.33 1.98 0.66 3 1 C3 4.3 3 7.6 3 11 C2.34 11 1.68 11 1 11 C0.67 7.37 0.34 3.74 0 0 Z " fill="#173A5F" transform="translate(146,89)"/>
<path d="M0 0 C4.95 0 9.9 0 15 0 C15 0.33 15 0.66 15 1 C12.36 1.66 9.72 2.32 7 3 C7 2.34 7 1.68 7 1 C6.01 1 5.02 1 4 1 C4 1.66 4 2.32 4 3 C2.68 2.34 1.36 1.68 0 1 C0 0.67 0 0.34 0 0 Z " fill="#D5EDFD" transform="translate(72,62)"/>
<path d="M0 0 C-0.33 1.32 -0.66 2.64 -1 4 C-2.65 4 -4.3 4 -6 4 C-6.33 3.01 -6.66 2.02 -7 1 C-3.375 -1.125 -3.375 -1.125 0 0 Z " fill="#76A870" transform="translate(118,129)"/>
<path d="M0 0 C1.32 0.33 2.64 0.66 4 1 C1.12835434 3.70272533 -0.30991841 4.94791837 -4.3125 5.25 C-5.199375 5.1675 -6.08625 5.085 -7 5 C-7.33 4.01 -7.66 3.02 -8 2 C-5.36 2.33 -2.72 2.66 0 3 C0 2.01 0 1.02 0 0 Z " fill="#5077A3" transform="translate(92,55)"/>
<path d="M0 0 C1.32 0 2.64 0 4 0 C3.67 0.99 3.34 1.98 3 3 C2.96125079 4.66621616 2.9549714 6.33394172 3 8 C2.01 8 1.02 8 0 8 C0.33 6.35 0.66 4.7 1 3 C0.34 2.67 -0.32 2.34 -1 2 C-0.67 1.34 -0.34 0.68 0 0 Z " fill="#BBD2E0" transform="translate(82,47)"/>
<path d="M0 0 C0.66 0.66 1.32 1.32 2 2 C-0.36292656 4.52588702 -1.66462511 5.88820837 -5 7 C-5.33 5.35 -5.66 3.7 -6 2 C-3.525 2.495 -3.525 2.495 -1 3 C-0.67 2.01 -0.34 1.02 0 0 Z " fill="#65A256" transform="translate(121,149)"/>
<path d="M0 0 C0.99 0 1.98 0 3 0 C3.33 1.98 3.66 3.96 4 6 C2.35 6 0.7 6 -1 6 C-0.67 4.02 -0.34 2.04 0 0 Z " fill="#6286AC" transform="translate(105,64)"/>
<path d="M0 0 C0.99 0 1.98 0 3 0 C3 1.65 3 3.3 3 5 C2.01 5.495 2.01 5.495 1 6 C0.01 5.67 -0.98 5.34 -2 5 C-1.34 3.35 -0.68 1.7 0 0 Z " fill="#6A90B6" transform="translate(80,64)"/>
<path d="M0 0 C1.32 0 2.64 0 4 0 C4 2.97 4 5.94 4 9 C1.3144406 6.3144406 0.93950026 3.62378672 0 0 Z " fill="#6E97B8" transform="translate(85,46)"/>
<path d="M0 0 C-1.125 1.5625 -1.125 1.5625 -3 3 C-6.1875 2.6875 -6.1875 2.6875 -9 2 C-4 -1.33333333 -4 -1.33333333 0 0 Z " fill="#81AE80" transform="translate(120,156)"/>
<path d="M0 0 C1.2065625 0.0309375 1.2065625 0.0309375 2.4375 0.0625 C2.4375 2.0425 2.4375 4.0225 2.4375 6.0625 C1.7775 6.0625 1.1175 6.0625 0.4375 6.0625 C0.1075 5.0725 -0.2225 4.0825 -0.5625 3.0625 C-1.5525 2.4025 -2.5425 1.7425 -3.5625 1.0625 C-2.5625 0.0625 -2.5625 0.0625 0 0 Z " fill="#EFF7FE" transform="translate(36.5625,112.9375)"/>
<path d="M0 0 C0.33 1.32 0.66 2.64 1 4 C1.66 4 2.32 4 3 4 C2.34 5.65 1.68 7.3 1 9 C-0.32 7.68 -1.64 6.36 -3 5 C-2.34 4.67 -1.68 4.34 -1 4 C-0.34786708 1.97536745 -0.34786708 1.97536745 0 0 Z " fill="#C4D5E4" transform="translate(161,151)"/>
<path d="M0 0 C0.99 1.32 1.98 2.64 3 4 C0.50907189 5.24546405 -0.41080733 4.7767578 -3 4 C-3.33 4.99 -3.66 5.98 -4 7 C-4.33 5.68 -4.66 4.36 -5 3 C-4.01 3 -3.02 3 -2 3 C-1.67 2.34 -1.34 1.68 -1 1 C-0.67 0.67 -0.34 0.34 0 0 Z " fill="#D3E3DF" transform="translate(103,148)"/>
<path d="M0 0 C1.98 0.66 3.96 1.32 6 2 C6 2.66 6 3.32 6 4 C4.02 4 2.04 4 0 4 C-0.33 3.01 -0.66 2.02 -1 1 C-0.67 0.67 -0.34 0.34 0 0 Z " fill="#385573" transform="translate(139,117)"/>
<path d="M0 0 C0.66 0.33 1.32 0.66 2 1 C2 1.99 2 2.98 2 4 C-0.97 4 -3.94 4 -7 4 C-5.68 3.34 -4.36 2.68 -3 2 C-2.01 1.34 -1.02 0.68 0 0 Z " fill="#627F9D" transform="translate(17,148)"/>
<path d="M0 0 C0.99 0.33 1.98 0.66 3 1 C3 2.32 3 3.64 3 5 C1.02 5 -0.96 5 -3 5 C-3 4.34 -3 3.68 -3 3 C-2.01 3 -1.02 3 0 3 C0 2.01 0 1.02 0 0 Z " fill="#3A587C" transform="translate(142,128)"/>
<path d="M0 0 C0.99 0 1.98 0 3 0 C3 1.98 3 3.96 3 6 C2.01 6 1.02 6 0 6 C0 4.02 0 2.04 0 0 Z " fill="#8BAD8A" transform="translate(54,125)"/>
<path d="M0 0 C0.33 0.66 0.66 1.32 1 2 C4.02934491 2.65772428 4.02934491 2.65772428 7 3 C7 3.33 7 3.66 7 4 C4.36 4 1.72 4 -1 4 C-0.67 2.68 -0.34 1.36 0 0 Z " fill="#5E7997" transform="translate(91,148)"/>
<path d="M0 0 C2.125 0.375 2.125 0.375 4 1 C3.01 1.33 2.02 1.66 1 2 C-0.20882096 4.00016466 -0.20882096 4.00016466 -1 6 C-1.625 4.125 -1.625 4.125 -2 2 C-1.34 1.34 -0.68 0.68 0 0 Z " fill="#D3F3FD" transform="translate(73,120)"/>
<path d="M0 0 C-0.309375 0.53625 -0.61875 1.0725 -0.9375 1.625 C-2.17827439 4.3984957 -2.5909675 7.00042837 -3 10 C-3.33 10 -3.66 10 -4 10 C-4 7.03 -4 4.06 -4 1 C-2 0 -2 0 0 0 Z " fill="#C1E0F4" transform="translate(71,116)"/>
<path d="M0 0 C0.66 0 1.32 0 2 0 C1.67 1.65 1.34 3.3 1 5 C-0.32 5 -1.64 5 -3 5 C-2 2 -2 2 0 0 Z " fill="#D8EBFA" transform="translate(79,70)"/>
<path d="M0 0 C0.66 0.33 1.32 0.66 2 1 C2 1.99 2 2.98 2 4 C-4.15234375 3.4140625 -4.15234375 3.4140625 -6 3 C-6.33 2.34 -6.66 1.68 -7 1 C-4.69 1.33 -2.38 1.66 0 2 C0 1.34 0 0.68 0 0 Z " fill="#C1DEF9" transform="translate(99,68)"/>
<path d="M0 0 C1.32 0.33 2.64 0.66 4 1 C3.67 2.65 3.34 4.3 3 6 C2.01 6 1.02 6 0 6 C0 4.02 0 2.04 0 0 Z " fill="#D3E5EE" transform="translate(64,56)"/>
</svg>
